<svg xmlns="http://www.w3.org/2000/svg" width="90" height="90" viewBox="0 0 90 90" fill="none"><rect x="0.5" y="0.101562" width="89" height="89" rx="8" fill="#F5EFFF"></rect><g clip-path="url(#clip0_8959_298)"><path fill-rule="evenodd" clip-rule="evenodd" d="M52.9748 60.8645C53.3706 61.4004 53.6017 62.0398 53.6399 62.705C53.7332 63.4394 53.5594 64.1824 53.1503 64.7992C52.7412 65.416 52.124 65.8654 51.4114 66.065C49.471 66.6166 47.4629 66.8933 45.4456 66.8878C41.3609 66.8861 37.3552 65.7615 33.8663 63.6372C30.3773 61.5132 27.5392 58.4707 25.6622 54.8429C23.7852 51.215 22.9414 47.1409 23.2229 43.0659C23.5045 38.9909 24.9007 35.0716 27.2588 31.7363C29.617 28.401 32.8465 25.778 36.5944 24.1538C40.3424 22.5297 44.4647 21.9668 48.5109 22.5268C52.557 23.0868 56.3714 24.7481 59.5373 27.3292C62.7033 29.9102 65.0992 33.3117 66.4627 37.1621C66.8313 38.1982 66.9451 39.3078 66.7946 40.3971C66.6441 41.4864 66.234 42.5236 65.5987 43.4211C64.9634 44.3186 64.1213 45.0502 63.1442 45.5541C62.1667 46.058 61.0823 46.3195 59.9827 46.3164H53.5714C51.939 46.3119 50.3586 46.8899 49.1143 47.9464C47.87 49.0028 47.0433 50.4686 46.783 52.08C46.5227 53.6915 46.8458 55.3428 47.6942 56.7376C48.5426 58.132 49.8606 59.178 51.4114 59.6878C52.0358 59.9199 52.5791 60.329 52.9748 60.8645ZM50.1428 37.745C52.0363 37.745 53.5714 36.2099 53.5714 34.3164C53.5714 32.4229 52.0363 30.8878 50.1428 30.8878C48.2492 30.8878 46.7142 32.4229 46.7142 34.3164C46.7142 36.2099 48.2492 37.745 50.1428 37.745ZM36.4285 42.8878C38.322 42.8878 39.8571 41.3528 39.8571 39.4593C39.8571 37.5657 38.322 36.0307 36.4285 36.0307C34.5349 36.0307 32.9999 37.5657 32.9999 39.4593C32.9999 41.3528 34.5349 42.8878 36.4285 42.8878Z" fill="#E4D7FF"></path><path d="M53.6399 62.705C53.6017 62.0398 53.3706 61.4004 52.9748 60.8645C52.5791 60.329 52.0358 59.9199 51.4114 59.6878C49.8606 59.178 48.5426 58.132 47.6942 56.7376C46.8458 55.3428 46.5227 53.6915 46.783 52.08C47.0433 50.4686 47.87 49.0028 49.1143 47.9464C50.3586 46.8899 51.939 46.3119 53.5714 46.3164H59.9827C61.0823 46.3195 62.1667 46.058 63.1442 45.5541C64.1213 45.0502 64.9634 44.3186 65.5987 43.4211C66.234 42.5236 66.6441 41.4864 66.7946 40.3971C66.9451 39.3078 66.8313 38.1982 66.4627 37.1621C65.0992 33.3117 62.7033 29.9102 59.5373 27.3292C56.3714 24.7481 52.557 23.0868 48.5109 22.5268C44.4647 21.9668 40.3424 22.5297 36.5944 24.1538C32.8465 25.778 29.617 28.401 27.2588 31.7363C24.9007 35.0716 23.5045 38.9909 23.2229 43.0659C22.9414 47.1409 23.7852 51.215 25.6622 54.8429C27.5392 58.4707 30.3773 61.5132 33.8663 63.6372C37.3552 65.7615 41.3609 66.8861 45.4456 66.8878C47.4629 66.8933 49.471 66.6166 51.4114 66.065C52.124 65.8654 52.7412 65.416 53.1503 64.7992C53.5594 64.1824 53.7332 63.4394 53.6399 62.705Z" stroke="#5F41D5" stroke-width="3" stroke-linecap="round" stroke-linejoin="round"></path><path d="M36.4291 54.8876C37.3759 54.8876 38.1434 54.12 38.1434 53.1733C38.1434 52.2265 37.3759 51.459 36.4291 51.459C35.4824 51.459 34.7148 52.2265 34.7148 53.1733C34.7148 54.12 35.4824 54.8876 36.4291 54.8876Z" stroke="#5F41D5" stroke-width="3" stroke-linecap="round" stroke-linejoin="round"></path><path d="M50.1434 37.7458C52.0369 37.7458 53.572 36.2108 53.572 34.3172C53.572 32.4237 52.0369 30.8887 50.1434 30.8887C48.2499 30.8887 46.7148 32.4237 46.7148 34.3172C46.7148 36.2108 48.2499 37.7458 50.1434 37.7458Z" fill="white"></path><path d="M36.4286 42.8884C38.3221 42.8884 39.8571 41.3534 39.8571 39.4598C39.8571 37.5663 38.3221 36.0312 36.4286 36.0312C34.535 36.0312 33 37.5663 33 39.4598C33 41.3534 34.535 42.8884 36.4286 42.8884Z" fill="white"></path><path d="M50.1434 37.7458C52.0369 37.7458 53.572 36.2108 53.572 34.3172C53.572 32.4237 52.0369 30.8887 50.1434 30.8887C48.2499 30.8887 46.7148 32.4237 46.7148 34.3172C46.7148 36.2108 48.2499 37.7458 50.1434 37.7458Z" stroke="#5F41D5" stroke-width="3" stroke-linecap="round" stroke-linejoin="round"></path><path d="M36.4286 42.8884C38.3221 42.8884 39.8571 41.3534 39.8571 39.4598C39.8571 37.5663 38.3221 36.0312 36.4286 36.0312C34.535 36.0312 33 37.5663 33 39.4598C33 41.3534 34.535 42.8884 36.4286 42.8884Z" stroke="#5F41D5" stroke-width="3" stroke-linecap="round" stroke-linejoin="round"></path></g><defs><clipPath id="clip0_8959_298"><rect width="48" height="48" fill="white" transform="translate(21 20.6016)"></rect></clipPath></defs></svg>