<svg xmlns="http://www.w3.org/2000/svg" width="90" height="90" viewBox="0 0 90 90" fill="none"><rect x="0.5" y="0.300781" width="89" height="89" rx="8" fill="#F5EFFF"></rect><g clip-path="url(#clip0_8959_379)"><path d="M35.7647 53.7706C35.1346 53.2351 34.7193 52.4898 34.5954 51.6723L32.8125 34.0151H64.1839C64.7565 33.9895 65.3267 34.1079 65.8416 34.3595C66.3566 34.6111 66.8006 34.9878 67.1325 35.4551C67.451 35.8948 67.6608 36.4037 67.7442 36.9402C67.8278 37.4767 67.7826 38.0253 67.6125 38.5409L63.0525 52.2551C62.8139 52.9648 62.3496 53.5769 61.7304 53.9978C61.1116 54.4188 60.3717 54.6256 59.6239 54.5865H38.0239C37.1971 54.5958 36.3947 54.3061 35.7647 53.7706Z" fill="#E4D7FF"></path><path d="M23.2383 22.0156H31.6114L34.5943 51.6728C34.7183 52.4903 35.1335 53.2355 35.7636 53.7711C36.3936 54.3066 37.196 54.5963 38.0229 54.5871H59.6229C60.3706 54.6261 61.1105 54.4193 61.7294 53.9983C62.3486 53.5773 62.8128 52.9653 63.0514 52.2556L67.6114 38.5413C67.7815 38.0258 67.8268 37.4771 67.7431 36.9407C67.6598 36.4042 67.45 35.8952 67.1314 35.4556C66.7996 34.9882 66.3556 34.6115 65.8406 34.36C65.3256 34.1084 64.7554 33.99 64.1829 34.0156H32.8114" stroke="#5F41D5" stroke-width="3" stroke-linecap="round" stroke-linejoin="round"></path><path d="M59.0385 66.5868C58.0919 66.5868 57.3242 65.8191 57.3242 64.8725C57.3242 63.9259 58.0919 63.1582 59.0385 63.1582C59.9851 63.1582 60.7528 63.9259 60.7528 64.8725C60.7528 65.8191 59.9851 66.5868 59.0385 66.5868Z" stroke="#5F41D5" stroke-width="3" stroke-linecap="round" stroke-linejoin="round"></path><path d="M36.7533 66.5868C35.8066 66.5868 35.0391 65.8191 35.0391 64.8725C35.0391 63.9259 35.8066 63.1582 36.7533 63.1582C37.7001 63.1582 38.4676 63.9259 38.4676 64.8725C38.4676 65.8191 37.7001 66.5868 36.7533 66.5868Z" stroke="#5F41D5" stroke-width="3" stroke-linecap="round" stroke-linejoin="round"></path><path d="M44.4258 40.873V47.7302" stroke="#5F41D5" stroke-width="3" stroke-linecap="round" stroke-linejoin="round"></path><path d="M54.7109 40.873V47.7302" stroke="#5F41D5" stroke-width="3" stroke-linecap="round" stroke-linejoin="round"></path></g><defs><clipPath id="clip0_8959_379"><rect width="48" height="48" fill="white" transform="translate(21.5 20.3008)"></rect></clipPath></defs></svg>