<svg xmlns="http://www.w3.org/2000/svg" width="36" height="37" viewBox="0 0 36 37" fill="none"><path d="M4.5 10.5176V16.5176C4.5 16.9154 4.65804 17.2969 4.93934 17.5782C5.22064 17.8595 5.60218 18.0176 6 18.0176H10.5M10.5 10.5176V25.5176M25.5 10.5176V16.5176C25.5 16.9154 25.658 17.2969 25.9393 17.5782C26.2206 17.8595 26.6022 18.0176 27 18.0176H31.5M31.5 10.5176V25.5176M15 12.0176V24.0176C15 24.4154 15.158 24.7969 15.4393 25.0782C15.7206 25.3595 16.1022 25.5176 16.5 25.5176H19.5C19.8978 25.5176 20.2794 25.3595 20.5607 25.0782C20.842 24.7969 21 24.4154 21 24.0176V12.0176C21 11.6198 20.842 11.2382 20.5607 10.9569C20.2794 10.6756 19.8978 10.5176 19.5 10.5176H16.5C16.1022 10.5176 15.7206 10.6756 15.4393 10.9569C15.158 11.2382 15 11.6198 15 12.0176Z" stroke="#D81897" stroke-width="3" stroke-linecap="round" stroke-linejoin="round"></path></svg>