<svg width="28" height="28" viewBox="0 0 28 28" fill="none" xmlns="http://www.w3.org/2000/svg">
<path fill-rule="evenodd" clip-rule="evenodd" d="M20.879 0.726562C21.6746 0.726732 22.4375 1.04291 23 1.60556L26.621 5.22656C27.1836 5.78904 27.4998 6.55198 27.5 7.34756V24.7266C27.5 25.5222 27.1839 26.2853 26.6213 26.8479C26.0587 27.4105 25.2956 27.7266 24.5 27.7266H3.5C2.70435 27.7266 1.94129 27.4105 1.37868 26.8479C0.81607 26.2853 0.5 25.5222 0.5 24.7266V7.34756C0.50017 6.55198 0.816352 5.78904 1.379 5.22656L5 1.60556C5.56248 1.04291 6.32542 0.726732 7.121 0.726562H20.879ZM24.5 9.72656H3.5V24.7266H24.5V9.72656ZM14 11.2266C14.3978 11.2266 14.7794 11.3846 15.0607 11.6659C15.342 11.9472 15.5 12.3287 15.5 12.7266V17.5056L16.121 16.8846C16.2594 16.7413 16.4249 16.627 16.6079 16.5484C16.7909 16.4698 16.9877 16.4284 17.1869 16.4267C17.3861 16.425 17.5836 16.4629 17.7679 16.5383C17.9523 16.6138 18.1198 16.7251 18.2606 16.866C18.4014 17.0068 18.5128 17.1743 18.5882 17.3586C18.6637 17.543 18.7016 17.7405 18.6999 17.9397C18.6981 18.1388 18.6568 18.3357 18.5782 18.5187C18.4995 18.7017 18.3853 18.8672 18.242 19.0056L15.062 22.1871C14.9227 22.3265 14.7573 22.4372 14.5752 22.5127C14.3931 22.5881 14.1979 22.627 14.0007 22.627C13.8036 22.627 13.6084 22.5881 13.4263 22.5127C13.2442 22.4372 13.0788 22.3265 12.9395 22.1871L9.758 19.0056C9.61473 18.8672 9.50046 18.7017 9.42185 18.5187C9.34323 18.3357 9.30186 18.1388 9.30012 17.9397C9.29839 17.7405 9.33635 17.543 9.41177 17.3586C9.48719 17.1743 9.59857 17.0068 9.73941 16.866C9.88025 16.7251 10.0477 16.6138 10.2321 16.5383C10.4164 16.4629 10.6139 16.425 10.8131 16.4267C11.0123 16.4284 11.2091 16.4698 11.3921 16.5484C11.5751 16.627 11.7406 16.7413 11.879 16.8846L12.5 17.5056V12.7266C12.5 12.3287 12.658 11.9472 12.9393 11.6659C13.2206 11.3846 13.6022 11.2266 14 11.2266ZM20.879 3.72656H7.121L4.121 6.72656H23.879L20.879 3.72656Z" fill="#D81897"/>
</svg>
