<svg xmlns="http://www.w3.org/2000/svg" width="90" height="90" viewBox="0 0 90 90" fill="none"><rect x="0.5" y="0.300781" width="89" height="89" rx="8" fill="#F5EFFF"></rect><g clip-path="url(#clip0_8959_363)"><path d="M55.7863 28.0156V32.3013V59.7299C55.7863 61.5484 55.0638 63.2925 53.7779 64.5786C52.4919 65.8647 50.7477 66.5871 48.9291 66.5871H23.2148C25.0335 66.5871 26.7776 65.8647 28.0636 64.5786C29.3496 63.2925 30.072 61.5484 30.072 59.7299V28.8728C30.072 27.0542 30.7944 25.31 32.0804 24.024C33.3664 22.7381 35.1105 22.0156 36.9291 22.0156H61.7863C60.1951 22.0156 58.669 22.6478 57.5438 23.773C56.4185 24.8982 55.7863 26.4243 55.7863 28.0156Z" fill="#E4D7FF"></path><path d="M61.7871 22.0156C63.3783 22.0156 64.9044 22.6478 66.0296 23.773C67.1549 24.8982 67.7871 26.4243 67.7871 28.0156V30.5871C67.7871 31.0417 67.6064 31.4778 67.2852 31.7992C66.9636 32.1207 66.5275 32.3013 66.0728 32.3013H55.7871V28.0156C55.7871 26.4243 56.4193 24.8982 57.5446 23.773C58.6699 22.6478 60.1959 22.0156 61.7871 22.0156Z" stroke="#5F41D5" stroke-width="3" stroke-linecap="round" stroke-linejoin="round"></path><path d="M55.7863 32.3013V59.7299C55.7863 61.5484 55.0638 63.2925 53.7779 64.5786C52.4919 65.8647 50.7477 66.5871 48.9291 66.5871H23.2148C25.0335 66.5871 26.7776 65.8647 28.0636 64.5786C29.3496 63.2925 30.072 61.5484 30.072 59.7299V28.8728C30.072 27.0542 30.7944 25.31 32.0804 24.024C33.3664 22.7381 35.1105 22.0156 36.9291 22.0156H61.7863" stroke="#5F41D5" stroke-width="3" stroke-linecap="round" stroke-linejoin="round"></path><path d="M42.0723 34.0156H47.2151" stroke="#5F41D5" stroke-width="3" stroke-linecap="round" stroke-linejoin="round"></path><path d="M38.6426 44.3008H47.214" stroke="#5F41D5" stroke-width="3" stroke-linecap="round" stroke-linejoin="round"></path><path d="M38.6426 54.5879H47.214" stroke="#5F41D5" stroke-width="3" stroke-linecap="round" stroke-linejoin="round"></path></g><defs><clipPath id="clip0_8959_363"><rect width="48" height="48" fill="white" transform="translate(21.5 20.3008)"></rect></clipPath></defs></svg>