<svg width="36" height="36" viewBox="0 0 36 36" fill="none" xmlns="http://www.w3.org/2000/svg">
<path d="M24.0039 12.751C22.9656 12.751 21.9505 13.0589 21.0872 13.6358C20.2238 14.2126 19.5509 15.0326 19.1535 15.9919C18.7562 16.9512 18.6522 18.0068 18.8548 19.0252C19.0574 20.0436 19.5574 20.9791 20.2916 21.7133C21.0258 22.4475 21.9613 22.9475 22.9797 23.1501C23.9981 23.3527 25.0537 23.2487 26.013 22.8513C26.9723 22.454 27.7922 21.7811 28.3691 20.9177C28.946 20.0544 29.2539 19.0393 29.2539 18.001C29.2539 16.6086 28.7008 15.2732 27.7162 14.2887C26.7317 13.3041 25.3963 12.751 24.0039 12.751ZM24.0039 7.50098H12.0039C9.21913 7.50098 6.54842 8.60722 4.57928 10.5764C2.61015 12.5455 1.50391 15.2162 1.50391 18.001C1.50391 20.7857 2.61015 23.4565 4.57928 25.4256C6.54842 27.3947 9.21913 28.501 12.0039 28.501H24.0039C26.7887 28.501 29.4594 27.3947 31.4285 25.4256C33.3977 23.4565 34.5039 20.7857 34.5039 18.001C34.5039 15.2162 33.3977 12.5455 31.4285 10.5764C29.4594 8.60722 26.7887 7.50098 24.0039 7.50098ZM24.0039 25.501H12.0039C10.0148 25.501 8.10713 24.7108 6.70061 23.3043C5.29408 21.8978 4.50391 19.9901 4.50391 18.001C4.50391 16.0119 5.29408 14.1042 6.70061 12.6977C8.10713 11.2912 10.0148 10.501 12.0039 10.501H24.0039C25.993 10.501 27.9007 11.2912 29.3072 12.6977C30.7137 14.1042 31.5039 16.0119 31.5039 18.001C31.5039 19.9901 30.7137 21.8978 29.3072 23.3043C27.9007 24.7108 25.993 25.501 24.0039 25.501Z" fill="#1877D8"/>
</svg>
