<svg width="37" height="37" viewBox="0 0 37 37" fill="none" xmlns="http://www.w3.org/2000/svg">
<path d="M17.5801 8.27937L20.3926 5.46687C21.1239 4.73557 21.9921 4.15547 22.9476 3.7597C23.903 3.36392 24.9271 3.16022 25.9613 3.16022C26.9956 3.16022 28.0196 3.36392 28.9751 3.7597C29.9306 4.15547 30.7988 4.73557 31.5301 5.46687C32.2614 6.19817 32.8415 7.06635 33.2373 8.02183C33.633 8.97732 33.8367 10.0014 33.8367 11.0356C33.8367 12.0698 33.633 13.0939 33.2373 14.0494C32.8415 15.0049 32.2614 15.8731 31.5301 16.6044L25.9051 22.2294C25.1738 22.9607 24.3056 23.5409 23.3502 23.9367C22.3947 24.3325 21.3706 24.5362 20.3363 24.5362C19.3021 24.5362 18.278 24.3325 17.3225 23.9367C16.367 23.5409 15.4989 22.9607 14.7676 22.2294C14.4691 21.9095 14.3066 21.4863 14.3141 21.0489C14.3217 20.6116 14.4988 20.1942 14.8081 19.8849C15.1174 19.5756 15.5348 19.3984 15.9722 19.3909C16.4095 19.3833 16.8328 19.5459 17.1526 19.8444C17.5705 20.2628 18.0668 20.5947 18.6131 20.8211C19.1594 21.0476 19.745 21.1642 20.3363 21.1642C20.9277 21.1642 21.5133 21.0476 22.0596 20.8211C22.6059 20.5947 23.1022 20.2628 23.5201 19.8444L29.1451 14.2194C29.9484 13.3667 30.3879 12.2347 30.3705 11.0634C30.353 9.89208 29.88 8.77364 29.0517 7.9453C28.2233 7.11697 27.1049 6.64391 25.9336 6.62647C24.7623 6.60902 23.6302 7.04857 22.7776 7.85187L19.9651 10.6644C19.6453 10.9628 19.222 11.1254 18.7847 11.1178C18.3473 11.1103 17.9299 10.9332 17.6206 10.6239C17.3113 10.3145 17.1342 9.89718 17.1266 9.4598C17.1191 9.02242 17.2816 8.5992 17.5801 8.27937ZM7.02759 29.9694C7.44552 30.3878 7.94182 30.7197 8.48811 30.9461C9.0344 31.1726 9.61997 31.2892 10.2113 31.2892C10.8027 31.2892 11.3883 31.1726 11.9346 30.9461C12.4809 30.7197 12.9772 30.3878 13.3951 29.9694L16.2076 27.1569C16.5274 26.8584 16.9506 26.6958 17.388 26.7034C17.8254 26.7109 18.2428 26.8881 18.5521 27.1974C18.8614 27.5067 19.0385 27.9241 19.0461 28.3614C19.0536 28.7988 18.891 29.222 18.5926 29.5419L15.7801 32.3544C15.0488 33.0857 14.1806 33.6658 13.2251 34.0615C12.2696 34.4573 11.2456 34.661 10.2113 34.661C9.17713 34.661 8.15304 34.4573 7.19755 34.0615C6.24207 33.6658 5.37389 33.0857 4.64259 32.3544C3.91129 31.6231 3.33119 30.7549 2.93542 29.7994C2.53964 28.8439 2.33594 27.8198 2.33594 26.7856C2.33594 25.7514 2.53964 24.7273 2.93542 23.7718C3.33119 22.8163 3.91129 21.9482 4.64259 21.2169L10.2676 15.5919C10.9989 14.8605 11.867 14.2804 12.8225 13.8846C13.778 13.4888 14.8021 13.2851 15.8363 13.2851C16.8706 13.2851 17.8947 13.4888 18.8502 13.8846C19.8056 14.2804 20.6738 14.8605 21.4051 15.5919C21.7035 15.9117 21.8661 16.3349 21.8586 16.7723C21.851 17.2097 21.6739 17.627 21.3646 17.9364C21.0553 18.2457 20.6379 18.4228 20.2005 18.4303C19.7631 18.4379 19.3399 18.2753 19.0201 17.9769C18.6022 17.5585 18.1059 17.2266 17.5596 17.0001C17.0133 16.7736 16.4277 16.6571 15.8363 16.6571C15.245 16.6571 14.6594 16.7736 14.1131 17.0001C13.5668 17.2266 13.0705 17.5585 12.6526 17.9769L7.02759 23.6019C6.6092 24.0198 6.27728 24.5161 6.05082 25.0624C5.82436 25.6087 5.7078 26.1942 5.7078 26.7856C5.7078 27.377 5.82436 27.9626 6.05082 28.5089C6.27728 29.0551 6.6092 29.5514 7.02759 29.9694Z" fill="#1877D8"/>
</svg>
