<svg width="36" height="36" viewBox="0 0 36 36" fill="none" xmlns="http://www.w3.org/2000/svg">
<path d="M18 33C26.2843 33 33 26.2843 33 18C33 9.71573 26.2843 3 18 3C9.71573 3 3 9.71573 3 18C3 26.2843 9.71573 33 18 33Z" stroke="#1877D8" stroke-width="3" stroke-linecap="round" stroke-linejoin="round"/>
<path d="M22.2461 22.245C21.4068 23.0835 20.3376 23.6542 19.1739 23.8852C18.0102 24.1162 16.8042 23.997 15.7082 23.5426C14.6122 23.0883 13.6756 22.3193 13.0166 21.3327C12.3576 20.3462 12.0059 19.1864 12.0059 18C12.0059 16.8136 12.3576 15.6538 13.0166 14.6673C13.6756 13.6807 14.6122 12.9117 15.7082 12.4574C16.8042 12.003 18.0102 11.8838 19.1739 12.1148C20.3376 12.3458 21.4068 12.9166 22.2461 13.755" stroke="#1877D8" stroke-width="3" stroke-linecap="round" stroke-linejoin="round"/>
</svg>
