<svg xmlns="http://www.w3.org/2000/svg" width="52" height="52" viewBox="0 0 52 52" fill="none"><rect x="0.5" y="0.5" width="51" height="51" rx="25.5" stroke="#7A7A7A"></rect><path d="M30.6203 29.9766L31.8703 28.7266C32.0656 28.5312 32.4172 28.6875 32.4172 28.9609V34.625C32.4172 35.6797 31.5578 36.5 30.5422 36.5H16.7922C15.7375 36.5 14.9172 35.6797 14.9172 34.625V20.875C14.9172 19.8594 15.7375 19 16.7922 19H27.4563C27.7297 19 27.8859 19.3516 27.6906 19.5469L26.4406 20.7969C26.3625 20.875 26.2844 20.875 26.2063 20.875H16.7922V34.625H30.5422V30.2109C30.5422 30.1328 30.5422 30.0547 30.6203 29.9766ZM36.7141 22.125L26.4797 32.3594L22.925 32.75C21.9094 32.8672 21.05 32.0078 21.1672 30.9922L21.5578 27.4375L31.7922 17.2031C32.6906 16.3047 34.1359 16.3047 35.0344 17.2031L36.7141 18.8828C37.6125 19.7812 37.6125 21.2266 36.7141 22.125ZM32.8859 23.2969L30.6203 21.0312L23.3547 28.2969L23.0422 30.875L25.6203 30.5625L32.8859 23.2969ZM35.3859 20.2109L33.7063 18.5312C33.55 18.3359 33.2766 18.3359 33.1203 18.5312L31.9484 19.7031L34.2141 22.0078L35.425 20.7969C35.5813 20.6016 35.5813 20.3672 35.3859 20.2109Z" fill="#7A7A7A"></path></svg>