<svg xmlns="http://www.w3.org/2000/svg" width="52" height="52" viewBox="0 0 52 52" fill="none"><rect x="0.5" y="0.5" width="51" height="51" rx="25.5" stroke="#7A7A7A"></rect><path d="M29.6281 28.375C32.5188 28.375 34.9016 30.7578 34.9016 33.6484V34.625C34.9016 35.6797 34.0422 36.5 33.0266 36.5H19.2766C18.2219 36.5 17.4016 35.6797 17.4016 34.625V33.6484C17.4016 30.7578 19.7453 28.375 22.6359 28.375C23.7688 28.375 24.2766 29 26.1516 29C27.9875 29 28.4953 28.375 29.6281 28.375ZM33.0266 34.625V33.6484C33.0266 31.7734 31.5031 30.25 29.6281 30.25C29.0422 30.25 28.1438 30.875 26.1516 30.875C24.1203 30.875 23.2219 30.25 22.6359 30.25C20.7609 30.25 19.2766 31.7734 19.2766 33.6484V34.625H33.0266ZM26.1516 27.75C23.0266 27.75 20.5266 25.25 20.5266 22.125C20.5266 19.0391 23.0266 16.5 26.1516 16.5C29.2375 16.5 31.7766 19.0391 31.7766 22.125C31.7766 25.25 29.2375 27.75 26.1516 27.75ZM26.1516 18.375C24.0813 18.375 22.4016 20.0938 22.4016 22.125C22.4016 24.1953 24.0813 25.875 26.1516 25.875C28.1828 25.875 29.9016 24.1953 29.9016 22.125C29.9016 20.0938 28.1828 18.375 26.1516 18.375Z" fill="#7A7A7A"></path></svg>