<svg width="64" height="64" viewBox="0 0 64 64" fill="none" xmlns="http://www.w3.org/2000/svg">
<rect width="64" height="64" rx="5.75281" fill="#F5EFFF"/>
<g clip-path="url(#clip0_87_24660)">
<path d="M47.6607 45.7115C48.1231 45.2491 48.3828 44.622 48.3828 43.9681L48.3828 39.0094L16.3314 39.0094L16.3314 43.9681C16.3314 44.622 16.5913 45.2491 17.0536 45.7115C17.5159 46.1738 18.1431 46.4336 18.7969 46.4336L45.9173 46.4336C46.5712 46.4336 47.1983 46.1738 47.6607 45.7115Z" fill="#E4D7FF"/>
<path d="M48.3828 39.0371L16.3314 39.0371" stroke="#5F41D5" stroke-width="2.1573" stroke-linecap="round" stroke-linejoin="round"/>
<path d="M45.9173 16.8477L18.7969 16.8477C17.4352 16.8477 16.3314 17.9515 16.3314 19.3132L16.3314 43.9681C16.3314 44.622 16.5913 45.2491 17.0536 45.7115C17.5159 46.1738 18.1431 46.4336 18.7969 46.4336L45.9173 46.4336C46.5712 46.4336 47.1983 46.1738 47.6607 45.7115C48.1231 45.2491 48.3828 44.622 48.3828 43.9681L48.3828 19.3132C48.3828 18.6594 48.1231 18.0321 47.6607 17.5699C47.1983 17.1076 46.5712 16.8477 45.9173 16.8477Z" stroke="#5F41D5" stroke-width="2.1573" stroke-linecap="round" stroke-linejoin="round"/>
</g>
<defs>
<clipPath id="clip0_87_24660">
<rect width="34.5169" height="34.5169" fill="white" transform="translate(49.6172 48.8989) rotate(-180)"/>
</clipPath>
</defs>
</svg>
