<svg xmlns="http://www.w3.org/2000/svg" width="300" height="70" viewBox="0 0 300 70" fill="none"><g clip-path="url(#clip0_11810_4256)"><path fill-rule="evenodd" clip-rule="evenodd" d="M213.527 37.3125H214.241C214.241 37.3125 222.666 37.4552 222.809 48.3083C222.809 58.7332 212.384 67.5869 200.103 67.5869C198.104 67.5869 181.539 67.0157 180.254 47.1659C176.969 47.023 171.4 46.4518 166.687 44.4527C161.974 56.0199 154.691 65.1592 150.265 65.1592C145.838 65.1592 142.125 59.447 139.126 48.4513L138.84 47.3085C133.128 57.0193 125.274 65.0166 121.418 65.0166C116.848 65.0166 111.279 59.7326 111.279 54.7346C111.279 49.7362 112.85 37.7407 112.85 37.7407C112.85 37.7407 108.708 38.5975 102.71 39.4543C101.568 45.1664 95.2847 68.7292 70.7222 68.7292C41.4472 68.7292 28.0234 37.0266 28.0234 37.0266C31.2721 35.0202 35.304 30.8083 39.8189 26.0912C48.8013 16.7073 59.6975 5.32396 70.151 5.32396C85.8595 5.32396 91.4291 24.7455 91.4291 24.7455L90.1437 26.8876C90.1437 26.8876 85.0028 20.3187 73.1499 20.3187C64.0958 20.3187 57.2388 28.4534 52.2711 34.347C50.6567 36.262 49.2419 37.9404 48.0162 39.0261C48.0162 39.0261 60.4402 58.5903 76.5773 58.5903C85.1454 58.5903 94.4279 51.1646 99.7115 39.8829C90.5719 41.1682 78.5764 42.3105 70.151 41.3108C70.151 41.3108 69.7224 40.8826 69.5798 40.454C69.2942 39.8829 69.2942 39.3117 69.2942 39.3117C99.1404 39.3117 121.561 26.8876 123.56 25.6026C123.703 25.4597 123.845 25.4597 123.988 25.4597C125.912 25.9241 124.909 32.4857 123.855 39.3819C122.64 47.3356 121.357 55.734 124.417 55.734C127.559 55.734 133.842 46.0236 137.412 40.1684C136.174 33.8851 134.937 27.9824 134.249 24.7035C133.905 23.0638 133.699 22.0798 133.699 22.0322V21.6037L133.985 21.461C134.127 21.3184 140.268 18.8904 144.124 18.8904C146.98 18.8904 148.694 20.4613 148.694 23.1746C148.694 24.8885 147.837 28.4585 146.266 32.7427C147.237 41.8487 150.48 50.3356 152.044 54.4289C152.319 55.15 152.542 55.7347 152.692 56.1626L152.728 56.1198C154.336 54.2197 159.14 48.5434 161.974 41.882C158.69 39.3117 157.119 35.7416 157.119 31.4574C157.119 24.3173 161.118 20.6043 164.973 20.6043C167.687 20.6043 170.543 22.4608 170.543 26.602C170.543 29.6009 170.114 32.8854 169.258 36.4554C171.542 38.5975 175.255 40.8826 180.254 41.0252C181.253 30.7433 186.251 16.0345 196.105 16.0345C206.53 16.0345 208.1 24.7455 208.1 30.0295C208.1 37.3122 201.531 43.5959 191.392 46.0236C191.678 54.306 193.963 61.5891 200.103 61.5891C203.959 61.5891 207.101 60.0182 209.529 57.0193C213.813 51.8783 214.812 43.5959 213.67 38.0263L213.527 37.3122V37.3125ZM191.678 38.8831C199.104 35.5986 199.247 29.1723 199.247 29.0294C199.247 24.8881 197.533 22.4604 195.962 22.3178C194.534 22.3178 192.392 30.1721 191.678 38.8831Z" fill="#66BB6A"></path><path d="M113.564 21.1758C113.564 21.461 113.707 21.6037 113.992 21.7466C119.848 22.6034 123.703 20.7473 123.703 11.3221C123.703 2.46806 114.564 9.46555 112.85 10.7509C112.707 10.8935 112.707 11.0361 112.707 11.3221C114.278 14.7491 113.85 19.7475 113.564 21.1758Z" fill="#66BB6A"></path><mask id="mask0_11810_4256" style="mask-type:luminance" maskUnits="userSpaceOnUse" x="180" y="46" width="15" height="14"><path fill-rule="evenodd" clip-rule="evenodd" d="M185.823 47.0251C182.967 47.3111 180.254 47.1681 180.254 47.1681C180.682 52.8803 182.173 56.7315 184.315 59.7304L194.74 58.8736C192.526 55.9819 191.6 51.6531 191.393 46.0236C191.393 46.0236 188.537 46.7395 185.823 47.0251Z" fill="white"></path></mask><g mask="url(#mask0_11810_4256)"><path d="M196.249 59.59L194.535 44.31L178.684 46.1662L180.397 61.4465L196.249 59.59Z" fill="url(#paint0_linear_11810_4256)"></path></g><mask id="mask1_11810_4256" style="mask-type:luminance" maskUnits="userSpaceOnUse" x="180" y="28" width="13" height="14"><path d="M191.679 38.8857C189.47 40.246 182.61 41.2102 180.254 41.0252C180.599 37.8219 181.29 33.3962 183.11 28.6012C184.5 28.272 190.823 28.2625 192.739 30.9718C192.325 33.1859 192.144 34.5488 191.995 35.7438C191.868 36.7889 191.763 37.8364 191.679 38.8857Z" fill="white"></path></mask><g mask="url(#mask1_11810_4256)"><path d="M180.111 28.4516H192.739V41.0479H180.111V28.4516Z" fill="url(#paint1_linear_11810_4256)"></path></g><mask id="mask2_11810_4256" style="mask-type:luminance" maskUnits="userSpaceOnUse" x="128" y="40" width="11" height="19"><path fill-rule="evenodd" clip-rule="evenodd" d="M128.631 52.7406C129.345 54.4545 130.117 56.4438 130.974 58.1573C132.38 56.5341 133.925 54.7156 135.749 52.0879C136.825 50.5382 137.945 48.7537 138.839 47.3085L137.417 40.1615C135.13 44.0497 131.242 49.9571 128.631 52.7406Z" fill="white"></path></mask><g mask="url(#mask2_11810_4256)"><path d="M129.557 61.3035L144.266 56.3052L137.84 37.0269L123.131 42.0249L129.557 61.3035Z" fill="url(#paint2_linear_11810_4256)"></path></g><mask id="mask3_11810_4256" style="mask-type:luminance" maskUnits="userSpaceOnUse" x="155" y="41" width="12" height="17"><path fill-rule="evenodd" clip-rule="evenodd" d="M155.262 53.0141C156.261 54.4421 158.118 56.3055 159.403 57.7335C160.572 56.1142 161.655 54.4347 162.648 52.7018C164.194 49.9911 165.622 47.0145 166.686 44.4526C166.686 44.4526 165.28 43.9604 164.131 43.2967C163.39 42.8632 162.671 42.3921 161.978 41.8853C159.959 46.5154 157.337 50.3476 155.262 53.0141Z" fill="white"></path></mask><g mask="url(#mask3_11810_4256)"><path d="M163.974 62.5889L173.542 45.595L158.119 36.884L148.551 53.7349L163.974 62.5889Z" fill="url(#paint3_linear_11810_4256)"></path></g><mask id="mask4_11810_4256" style="mask-type:luminance" maskUnits="userSpaceOnUse" x="144" y="22" width="5" height="11"><path fill-rule="evenodd" clip-rule="evenodd" d="M144.98 23.8887C144.98 23.8887 145.123 26.4594 146.266 32.7424C147.837 28.3156 148.68 24.9163 148.68 23.2024V22.7742L144.98 23.8887Z" fill="white"></path></mask><g mask="url(#mask4_11810_4256)"><path d="M145.98 21.0325L140.41 29.8865L147.693 34.3133L153.263 25.4597L145.98 21.0325Z" fill="url(#paint4_linear_11810_4256)"></path></g><mask id="mask5_11810_4256" style="mask-type:luminance" maskUnits="userSpaceOnUse" x="166" y="27" width="5" height="10"><path fill-rule="evenodd" clip-rule="evenodd" d="M166.114 29.7457C166.114 29.7457 165.114 32.7446 169.256 36.4576C169.969 33.4587 170.369 30.6061 170.519 27.895L166.114 29.7457Z" fill="white"></path></mask><g mask="url(#mask5_11810_4256)"><path d="M165.545 26.3164L163.117 35.7413L170.257 37.5978L172.828 28.3156L165.545 26.3164Z" fill="url(#paint5_linear_11810_4256)"></path></g><mask id="mask6_11810_4256" style="mask-type:luminance" maskUnits="userSpaceOnUse" x="89" y="39" width="14" height="18"><path fill-rule="evenodd" clip-rule="evenodd" d="M99.7081 39.8828C97.0584 45.5727 93.6332 50.0017 89.4941 53.371L95.5745 56.1267C98.7877 51.6194 100.416 47.4358 101.568 43.8811L102.179 41.7236L102.715 39.4477L99.7081 39.8828Z" fill="white"></path></mask><g mask="url(#mask6_11810_4256)"><path d="M90.6438 40.2843L103.318 39.1687L102.693 56.5282L89.2871 56.0196L90.6438 40.2843Z" fill="url(#paint6_linear_11810_4256)"></path></g><path fill-rule="evenodd" clip-rule="evenodd" d="M236.436 5.08407C230.413 5.08407 225.531 9.9666 225.531 15.9895C225.531 22.0124 230.413 26.8949 236.436 26.8949H259.373C265.396 26.8949 270.278 22.0124 270.278 15.9895C270.278 9.9666 265.396 5.08407 259.373 5.08407H236.436ZM222.809 15.9895C222.809 8.46325 228.91 2.36201 236.436 2.36201H259.373C266.899 2.36201 273 8.46325 273 15.9895C273 23.5158 266.899 29.617 259.373 29.617H236.436C228.91 29.617 222.809 23.5158 222.809 15.9895Z" fill="#333333"></path><path d="M246.991 22.3434H243.933L242.217 15.69C242.154 15.4534 242.044 14.9653 241.888 14.2259C241.738 13.481 241.651 12.9815 241.628 12.7273C241.593 13.0393 241.507 13.5417 241.368 14.2346C241.23 14.9221 241.123 15.4128 241.048 15.7076L239.341 22.3434H236.292L233.061 9.67801H235.703L237.323 16.591C237.606 17.8672 237.811 18.9734 237.938 19.9091C237.972 19.58 238.05 19.0717 238.172 18.3843C238.299 17.6913 238.417 17.1542 238.527 16.7731L240.372 9.67801H242.91L244.756 16.7731C244.837 17.0905 244.938 17.5758 245.059 18.2285C245.18 18.8809 245.272 19.4411 245.336 19.9091C245.394 19.4586 245.486 18.8984 245.613 18.2285C245.74 17.5527 245.856 17.0072 245.96 16.591L247.571 9.67801H250.213L246.991 22.3434ZM255.912 15.6381H256.796C257.622 15.6381 258.24 15.4765 258.65 15.1528C259.06 14.8237 259.265 14.3473 259.265 13.7234C259.265 13.0941 259.092 12.629 258.745 12.3288C258.405 12.0285 257.867 11.8783 257.134 11.8783H255.912V15.6381ZM261.977 13.6284C261.977 14.9912 261.549 16.0337 260.694 16.7556C259.846 17.4778 258.636 17.8387 257.065 17.8387H255.912V22.3438H253.227V9.67764H257.272C258.809 9.67764 259.975 10.0097 260.773 10.6737C261.575 11.3319 261.977 12.3174 261.977 13.6284Z" fill="#333333"></path></g><defs><linearGradient id="paint0_linear_11810_4256" x1="193.257" y1="57.0383" x2="192.163" y2="46.8233" gradientUnits="userSpaceOnUse"><stop stop-color="#66BB6A"></stop><stop offset="1" stop-color="#378F43"></stop></linearGradient><linearGradient id="paint1_linear_11810_4256" x1="181.239" y1="35.9647" x2="181.239" y2="46.5172" gradientUnits="userSpaceOnUse"><stop stop-color="#66BB6A"></stop><stop offset="1" stop-color="#378F43"></stop></linearGradient><linearGradient id="paint2_linear_11810_4256" x1="130.828" y1="56.0748" x2="140.583" y2="53.6105" gradientUnits="userSpaceOnUse"><stop stop-color="#66BB6A"></stop><stop offset="1" stop-color="#378F43"></stop></linearGradient><linearGradient id="paint3_linear_11810_4256" x1="163.779" y1="56.092" x2="169.566" y2="46.4715" gradientUnits="userSpaceOnUse"><stop stop-color="#66BB6A"></stop><stop offset="1" stop-color="#378F43"></stop></linearGradient><linearGradient id="paint4_linear_11810_4256" x1="146.093" y1="26.0173" x2="144.416" y2="28.52" gradientUnits="userSpaceOnUse"><stop stop-color="#66BB6A"></stop><stop offset="1" stop-color="#378F43"></stop></linearGradient><linearGradient id="paint5_linear_11810_4256" x1="166.544" y1="31.253" x2="165.358" y2="34.5912" gradientUnits="userSpaceOnUse"><stop stop-color="#66BB6A"></stop><stop offset="1" stop-color="#378F43"></stop></linearGradient><linearGradient id="paint6_linear_11810_4256" x1="101.135" y1="52.779" x2="101.135" y2="40.0178" gradientUnits="userSpaceOnUse"><stop stop-color="#66BB6A"></stop><stop offset="1" stop-color="#378F43"></stop></linearGradient><clipPath id="clip0_11810_4256"><rect width="245" height="66.9179" fill="white" transform="translate(28 2)"></rect></clipPath></defs></svg>