<svg xmlns="http://www.w3.org/2000/svg" width="64" height="64" viewBox="0 0 64 64" fill="none"><rect width="64" height="64" rx="5.75281" fill="#F5EFFF"></rect><g clip-path="url(#clip0_87_24678)"><path fill-rule="evenodd" clip-rule="evenodd" d="M26.8651 45.8544L26.8584 45.8611C25.7025 47.0169 24.1347 47.6663 22.5 47.6663H45.9222C46.576 47.6663 47.2032 47.4065 47.6655 46.9442C48.1278 46.4819 48.3876 45.8547 48.3876 45.2008V37.8044C48.3876 37.1505 48.1278 36.5234 47.6655 36.061C47.2032 35.5986 46.576 35.3389 45.9222 35.3389H37.378L26.8639 45.8665L26.8651 45.8544Z" fill="#E4D7FF"></path><path d="M28.6631 26.7097L37.2923 18.0311C37.7542 17.572 38.3791 17.3142 39.0305 17.3142C39.6818 17.3142 40.3066 17.572 40.7687 18.0311L45.9709 23.258C46.4299 23.7199 46.6878 24.3448 46.6878 24.9962C46.6878 25.6475 46.4299 26.2724 45.9709 26.7343L26.8633 45.8665" stroke="#5F41D5" stroke-width="2.1573" stroke-linecap="round" stroke-linejoin="round"></path><path d="M26.8581 45.8611C28.014 44.705 28.6634 43.1372 28.6634 41.5026V35.3389H16.3359V41.5026C16.3359 43.1372 16.9853 44.705 18.1412 45.8611C18.7136 46.4333 19.3931 46.8875 20.1409 47.1971C20.8887 47.5068 21.6902 47.6663 22.4997 47.6663C24.1344 47.6663 25.7022 47.0169 26.8581 45.8611Z" fill="#E4D7FF"></path><path d="M26.1979 15.615H18.8014C18.1475 15.615 17.5204 15.8747 17.0581 16.3371C16.5957 16.7995 16.3359 17.4266 16.3359 18.0805V25.4769H28.6634V18.0805C28.6634 17.4266 28.4036 16.7995 27.9413 16.3371C27.4789 15.8747 26.8518 15.615 26.1979 15.615Z" fill="#E4D7FF"></path><path d="M18.8014 15.615H26.1979C26.8518 15.615 27.4789 15.8747 27.9413 16.3371C28.4036 16.7995 28.6634 17.4266 28.6634 18.0805V41.5026C28.6634 43.1373 28.014 44.7051 26.8581 45.8611C25.7022 47.0169 24.1344 47.6664 22.4997 47.6664C21.6902 47.6664 20.8887 47.5068 20.1409 47.1972C19.3931 46.8875 18.7136 46.4334 18.1412 45.8611C16.9853 44.7051 16.3359 43.1373 16.3359 41.5026V18.0805C16.3359 17.4266 16.5957 16.7995 17.0581 16.3371C17.5204 15.8747 18.1475 15.615 18.8014 15.615Z" stroke="#5F41D5" stroke-width="2.1573" stroke-linecap="round" stroke-linejoin="round"></path><path d="M16.3359 25.4771H28.6634" stroke="#5F41D5" stroke-width="2.1573" stroke-linecap="round" stroke-linejoin="round"></path><path d="M16.3359 35.3389H28.6634" stroke="#5F41D5" stroke-width="2.1573" stroke-linecap="round" stroke-linejoin="round"></path><path d="M37.4724 35.3389H45.9222C46.576 35.3389 47.2032 35.5986 47.6655 36.061C48.1278 36.5234 48.3876 37.1505 48.3876 37.8044V45.2008C48.3876 45.8547 48.1278 46.4819 47.6655 46.9442C47.2032 47.4065 46.576 47.6663 45.9222 47.6663H22.5" stroke="#5F41D5" stroke-width="2.1573" stroke-linecap="round" stroke-linejoin="round"></path></g><defs><clipPath id="clip0_87_24678"><rect width="34.5169" height="34.5169" fill="white" transform="translate(15.1016 14.3821)"></rect></clipPath></defs></svg>