<svg width="90" height="90" viewBox="0 0 90 90" fill="none" xmlns="http://www.w3.org/2000/svg">
<rect x="0.5" y="0.454834" width="89" height="89" rx="8" fill="#F5EFFF"/>
<g clip-path="url(#clip0_8925_3048)">
<path d="M24.219 24.8875C23.5761 25.5305 23.2148 26.4025 23.2148 27.3119V34.2075H67.7863V27.3119C67.7863 26.4025 67.4249 25.5305 66.782 24.8875C66.1392 24.2445 65.267 23.8833 64.3577 23.8833H26.6434C25.7341 23.8833 24.862 24.2445 24.219 24.8875Z" fill="#E4D7FF"/>
<path d="M23.2148 34.1689H67.7863" stroke="#5F41D5" stroke-width="3" stroke-linecap="round" stroke-linejoin="round"/>
<path d="M26.6434 65.0262H64.3577C66.2513 65.0262 67.7863 63.4912 67.7863 61.5976V27.3119C67.7863 26.4025 67.4249 25.5305 66.782 24.8875C66.1392 24.2445 65.267 23.8833 64.3577 23.8833H26.6434C25.7341 23.8833 24.862 24.2445 24.219 24.8875C23.5761 25.5305 23.2148 26.4025 23.2148 27.3119V61.5976C23.2148 62.5068 23.5761 63.3791 24.219 64.0219C24.862 64.6648 25.7341 65.0262 26.6434 65.0262Z" stroke="#5F41D5" stroke-width="3" stroke-linecap="round" stroke-linejoin="round"/>
</g>
<defs>
<clipPath id="clip0_8925_3048">
<rect width="48" height="48" fill="white" transform="translate(21.5 20.4548)"/>
</clipPath>
</defs>
</svg>
