<svg width="32" height="32" viewBox="0 0 32 32" fill="none" xmlns="http://www.w3.org/2000/svg">
<path d="M15.4942 5.59571L18.3067 2.78321C19.0379 2.05192 19.9061 1.47182 20.8616 1.07604C21.8171 0.680266 22.8412 0.476563 23.8754 0.476563C24.9096 0.476562 25.9337 0.680266 26.8892 1.07604C27.8447 1.47182 28.7129 2.05192 29.4442 2.78321C30.1755 3.51451 30.7555 4.38269 31.1513 5.33818C31.5471 6.29367 31.7508 7.31775 31.7508 8.35196C31.7508 9.38618 31.5471 10.4103 31.1513 11.3658C30.7555 12.3212 30.1755 13.1894 29.4442 13.9207L23.8192 19.5457C23.0879 20.2771 22.2197 20.8572 21.2642 21.253C20.3087 21.6488 19.2846 21.8525 18.2504 21.8525C17.2162 21.8525 16.1921 21.6488 15.2366 21.253C14.2811 20.8572 13.4129 20.2771 12.6817 19.5457C12.3832 19.2259 12.2206 18.8027 12.2282 18.3653C12.2357 17.9279 12.4128 17.5105 12.7222 17.2012C13.0315 16.8919 13.4488 16.7148 13.8862 16.7072C14.3236 16.6997 14.7468 16.8623 15.0667 17.1607C15.4846 17.5791 15.9809 17.911 16.5272 18.1375C17.0735 18.3639 17.659 18.4805 18.2504 18.4805C18.8418 18.4805 19.4273 18.3639 19.9736 18.1375C20.5199 17.911 21.0162 17.5791 21.4342 17.1607L27.0592 11.5357C27.8625 10.6831 28.302 9.55105 28.2846 8.37974C28.2671 7.20843 27.794 6.08998 26.9657 5.26165C26.1374 4.43332 25.0189 3.96026 23.8476 3.94281C22.6763 3.92537 21.5443 4.36491 20.6917 5.16821L17.8792 7.98071C17.5593 8.27916 17.1361 8.44175 16.6987 8.43419C16.2613 8.42663 15.844 8.24953 15.5347 7.94021C15.2253 7.63088 15.0482 7.21353 15.0407 6.77615C15.0331 6.33877 15.1957 5.91554 15.4942 5.59571ZM4.94165 27.2857C5.35958 27.7041 5.85588 28.036 6.40217 28.2625C6.94846 28.4889 7.53403 28.6055 8.1254 28.6055C8.71677 28.6055 9.30234 28.4889 9.84863 28.2625C10.3949 28.036 10.8912 27.7041 11.3092 27.2857L14.1217 24.4732C14.4415 24.1748 14.8647 24.0122 15.3021 24.0197C15.7395 24.0273 16.1568 24.2044 16.4662 24.5137C16.7755 24.823 16.9526 25.2404 16.9601 25.6778C16.9677 26.1152 16.8051 26.5384 16.5067 26.8582L13.6942 29.6707C12.9629 30.402 12.0947 30.9821 11.1392 31.3779C10.1837 31.7737 9.15961 31.9774 8.1254 31.9774C7.09119 31.9774 6.0671 31.7737 5.11162 31.3779C4.15613 30.9821 3.28795 30.402 2.55665 29.6707C1.82535 28.9394 1.24526 28.0712 0.849479 27.1157C0.453703 26.1603 0.25 25.1362 0.25 24.102C0.25 23.0678 0.453703 22.0437 0.849479 21.0882C1.24526 20.1327 1.82535 19.2645 2.55665 18.5332L8.18165 12.9082C8.91292 12.1769 9.78109 11.5967 10.7366 11.2009C11.6921 10.8051 12.7162 10.6014 13.7504 10.6014C14.7846 10.6014 15.8087 10.8051 16.7642 11.2009C17.7197 11.5967 18.5879 12.1769 19.3192 12.9082C19.6176 13.228 19.7802 13.6513 19.7726 14.0886C19.7651 14.526 19.588 14.9434 19.2787 15.2527C18.9693 15.562 18.552 15.7391 18.1146 15.7467C17.6772 15.7542 17.254 15.5917 16.9342 15.2932C16.5162 14.8748 16.0199 14.5429 15.4736 14.3164C14.9273 14.09 14.3418 13.9734 13.7504 13.9734C13.159 13.9734 12.5735 14.09 12.0272 14.3164C11.4809 14.5429 10.9846 14.8748 10.5667 15.2932L4.94165 20.9182C4.52326 21.3361 4.19134 21.8324 3.96488 22.3787C3.73842 22.925 3.62186 23.5106 3.62186 24.102C3.62186 24.6933 3.73842 25.2789 3.96488 25.8252C4.19134 26.3715 4.52326 26.8678 4.94165 27.2857Z" fill="#D81897"/>
</svg>
