<svg xmlns="http://www.w3.org/2000/svg" width="90" height="90" viewBox="0 0 90 90" fill="none"><rect x="0.5" y="0.300781" width="89" height="89" rx="8" fill="#F5EFFF"></rect><g clip-path="url(#clip0_8959_394)"><path d="M38.1451 22.5156H31.2879C29.3944 22.5156 27.8594 24.0506 27.8594 25.9442V32.8013C27.8594 34.6949 29.3944 36.2299 31.2879 36.2299H38.1451C40.0386 36.2299 41.5737 34.6949 41.5737 32.8013V25.9442C41.5737 24.0506 40.0386 22.5156 38.1451 22.5156Z" fill="#E4D7FF"></path><path d="M38.1451 53.373H31.2879C29.3944 53.373 27.8594 54.9081 27.8594 56.8016V63.6588C27.8594 65.5524 29.3944 67.0873 31.2879 67.0873H38.1451C40.0386 67.0873 41.5737 65.5524 41.5737 63.6588V56.8016C41.5737 54.9081 40.0386 53.373 38.1451 53.373Z" fill="#E4D7FF"></path><path d="M58.7154 39.6582H51.8583C49.9647 39.6582 48.4297 41.1932 48.4297 43.0868V49.9439C48.4297 51.8374 49.9647 53.3725 51.8583 53.3725H58.7154C60.609 53.3725 62.144 51.8374 62.144 49.9439V43.0868C62.144 41.1932 60.609 39.6582 58.7154 39.6582Z" fill="#E4D7FF"></path><path d="M38.1451 22.5156H31.2879C29.3944 22.5156 27.8594 24.0506 27.8594 25.9442V32.8013C27.8594 34.6949 29.3944 36.2299 31.2879 36.2299H38.1451C40.0386 36.2299 41.5737 34.6949 41.5737 32.8013V25.9442C41.5737 24.0506 40.0386 22.5156 38.1451 22.5156Z" stroke="#5F41D5" stroke-width="3" stroke-linecap="round" stroke-linejoin="round"></path><path d="M38.1451 53.373H31.2879C29.3944 53.373 27.8594 54.9081 27.8594 56.8016V63.6588C27.8594 65.5524 29.3944 67.0873 31.2879 67.0873H38.1451C40.0386 67.0873 41.5737 65.5524 41.5737 63.6588V56.8016C41.5737 54.9081 40.0386 53.373 38.1451 53.373Z" stroke="#5F41D5" stroke-width="3" stroke-linecap="round" stroke-linejoin="round"></path><path d="M58.7154 39.6582H51.8583C49.9647 39.6582 48.4297 41.1932 48.4297 43.0868V49.9439C48.4297 51.8374 49.9647 53.3725 51.8583 53.3725H58.7154C60.609 53.3725 62.144 51.8374 62.144 49.9439V43.0868C62.144 41.1932 60.609 39.6582 58.7154 39.6582Z" stroke="#5F41D5" stroke-width="3" stroke-linecap="round" stroke-linejoin="round"></path><path d="M34.7148 36.2305V53.3733" stroke="#5F41D5" stroke-width="3" stroke-linecap="round" stroke-linejoin="round"></path><path d="M48.4291 46.5162H45.0006C42.2726 46.5162 39.6564 45.4325 37.7275 43.5036C35.7985 41.5746 34.7148 38.9584 34.7148 36.2305" stroke="#5F41D5" stroke-width="3" stroke-linecap="round" stroke-linejoin="round"></path></g><defs><clipPath id="clip0_8959_394"><rect width="48" height="48" fill="white" transform="translate(21 20.8008)"></rect></clipPath></defs></svg>