<svg width="37" height="37" viewBox="0 0 37 37" fill="none" xmlns="http://www.w3.org/2000/svg">
<g clip-path="url(#clip0_7905_11240)">
<path d="M11.0859 17.4106L10.0859 20.5106H12.0859L11.0859 17.4106Z" fill="#1877D8"/>
<path d="M30.3867 3.91064H14.3867V8.91064H18.3867V10.9106H5.38672C3.68672 10.9106 2.38672 12.2106 2.38672 13.9106V24.9106C2.38672 26.6106 3.68672 27.9106 5.38672 27.9106H6.38672V33.0106L12.6867 27.9106H19.3867V20.9106H30.3867C32.0867 20.9106 33.3867 19.6106 33.3867 17.9106V6.91064C33.3867 5.21064 32.0867 3.91064 30.3867 3.91064ZM13.1867 23.8106L12.6867 22.2106H9.58672L8.98672 23.8106H6.58672L9.88672 14.9106H12.2867L15.5867 23.8106H13.1867ZM28.3867 15.9106V17.9106C27.0867 17.9106 25.6867 17.5106 24.4867 16.9106C23.2867 17.5106 21.8867 17.8106 20.4867 17.9106L20.3867 15.9106C21.0867 15.9106 21.7867 15.8106 22.4867 15.6106C21.5867 14.7106 20.9867 13.6106 20.6867 12.4106H22.7867C23.0867 13.3106 23.6867 14.0106 24.3867 14.6106C25.4867 13.7106 26.1867 12.4106 26.2867 10.9106H20.2867V8.91064H23.2867V6.91064H25.2867V8.91064H28.5867L28.6867 9.91064C28.7867 12.0106 27.9867 14.1106 26.4867 15.6106C27.1867 15.8106 27.7867 15.9106 28.3867 15.9106Z" fill="#1877D8"/>
</g>
<defs>
<clipPath id="clip0_7905_11240">
<rect width="36" height="36" fill="white" transform="translate(0.0859375 0.910645)"/>
</clipPath>
</defs>
</svg>
