<svg xmlns="http://www.w3.org/2000/svg" width="300" height="70" viewBox="0 0 300 70" fill="none"><g clip-path="url(#clip0_11802_4260)"><path d="M49.14 25.3209C48.6302 25.3198 48.1251 25.4194 47.6538 25.614C47.1825 25.8086 46.7543 26.0944 46.3938 26.4549C46.0333 26.8155 45.7475 27.2436 45.5529 27.7149C45.3582 28.1862 45.2586 28.6912 45.2598 29.2012V51.6391C45.2651 51.8275 45.3424 52.0068 45.4757 52.1402C45.609 52.2735 45.7883 52.3507 45.9768 52.3561C47.8438 52.3527 49.6334 51.6096 50.9536 50.2894C52.2738 48.9692 53.0169 47.1796 53.0203 45.3126V29.2012C53.0213 28.6912 52.9217 28.1862 52.7272 27.7149C52.5326 27.2436 52.2468 26.8155 51.8862 26.4549C51.5257 26.0944 51.0975 25.8086 50.6263 25.614C50.155 25.4194 49.6499 25.3198 49.14 25.3209Z" fill="#FFB000"></path><path d="M37.8803 36.2869C37.3704 36.2857 36.8653 36.3853 36.394 36.58C35.9228 36.7746 35.4946 37.0604 35.134 37.4209C34.7735 37.7814 34.4877 38.2096 34.2931 38.6809C34.0985 39.1522 33.9989 39.6573 34 40.1671V52.0609C34.0053 52.2494 34.0826 52.4287 34.2159 52.562C34.3492 52.6953 34.5285 52.7726 34.717 52.7779C36.584 52.7746 38.3736 52.0314 39.6938 50.7113C41.014 49.391 41.7571 47.6014 41.7605 45.7345V40.1671C41.7616 39.6573 41.662 39.1522 41.4674 38.6809C41.2728 38.2096 40.987 37.7814 40.6265 37.4209C40.2659 37.0604 39.8377 36.7746 39.3665 36.58C38.8952 36.3853 38.3901 36.2857 37.8803 36.2869Z" fill="#0D9DFF"></path><path d="M60.4037 16C59.8938 15.9989 59.3887 16.0985 58.9175 16.2931C58.4462 16.4877 58.018 16.7735 57.6575 17.134C57.2969 17.4946 57.0111 17.9228 56.8166 18.394C56.622 18.8653 56.5224 19.3704 56.5234 19.8803V51.8922C56.5288 52.0808 56.606 52.2601 56.7393 52.3934C56.8727 52.5267 57.052 52.6039 57.2405 52.6093C59.1075 52.6059 60.8971 51.8627 62.2173 50.5426C63.5374 49.2224 64.2806 47.4328 64.2839 45.5658V19.8803C64.2851 19.3704 64.1855 18.8653 63.9908 18.394C63.7963 17.9228 63.5105 17.4946 63.15 17.134C62.7894 16.7735 62.3612 16.4877 61.8899 16.2931C61.4187 16.0985 60.9136 15.9989 60.4037 16Z" fill="#235AF3"></path><path d="M77.8125 51.0019V20.457H82.4211V47.0347H96.2617V51.0019H77.8125Z" fill="#1E1E1E"></path><path d="M106.834 51.4643C104.577 51.4643 102.633 50.9821 101.003 50.0175C99.3819 49.0431 98.129 47.676 97.2441 45.9161C96.3691 44.1462 95.9316 42.0731 95.9316 39.6967C95.9316 37.3501 96.3691 35.282 97.2441 33.4923C98.129 31.7025 99.3619 30.3055 100.943 29.3013C102.534 28.2971 104.393 27.7949 106.521 27.7949C107.814 27.7949 109.066 28.0087 110.279 28.4362C111.492 28.8638 112.582 29.5349 113.546 30.4497C114.511 31.3645 115.271 32.5526 115.828 34.0143C116.384 35.466 116.663 37.2309 116.663 39.3089V40.8899H98.4522V37.5491H112.293C112.293 36.3757 112.054 35.3367 111.577 34.4319C111.1 33.5171 110.429 32.7962 109.564 32.2693C108.708 31.7423 107.704 31.4788 106.551 31.4788C105.298 31.4788 104.204 31.787 103.27 32.4035C102.345 33.0101 101.629 33.8055 101.122 34.7898C100.625 35.7643 100.376 36.8232 100.376 37.9666V40.5767C100.376 42.1079 100.645 43.4104 101.182 44.4843C101.728 45.5582 102.489 46.3785 103.463 46.9452C104.438 47.502 105.576 47.7804 106.879 47.7804C107.724 47.7804 108.495 47.6611 109.191 47.4225C109.887 47.1739 110.488 46.806 110.996 46.3188C111.502 45.8316 111.89 45.23 112.158 44.5141L116.379 45.2747C116.041 46.5177 115.435 47.6064 114.56 48.541C113.695 49.4658 112.606 50.1866 111.294 50.7036C109.991 51.2107 108.505 51.4643 106.834 51.4643Z" fill="#1E1E1E"></path><path d="M126.596 51.509C125.145 51.509 123.832 51.2406 122.659 50.7036C121.486 50.1568 120.556 49.3663 119.87 48.3322C119.194 47.2982 118.855 46.0304 118.855 44.5291C118.855 43.2364 119.105 42.1725 119.602 41.3373C120.098 40.5021 120.77 39.8409 121.615 39.3537C122.46 38.8665 123.405 38.4986 124.449 38.2501C125.493 38.0015 126.557 37.8125 127.641 37.6833C129.013 37.5242 130.127 37.3949 130.981 37.2955C131.836 37.1861 132.458 37.0121 132.845 36.7734C133.233 36.5349 133.428 36.1471 133.428 35.6101V35.5058C133.428 34.2032 133.059 33.194 132.324 32.4781C131.598 31.7622 130.514 31.4042 129.072 31.4042C127.571 31.4042 126.388 31.7374 125.522 32.4035C124.667 33.0597 124.076 33.7906 123.748 34.5959L119.557 33.6414C120.054 32.2494 120.78 31.1258 121.734 30.2708C122.699 29.4057 123.807 28.7793 125.06 28.3915C126.313 27.9938 127.631 27.7949 129.013 27.7949C129.927 27.7949 130.897 27.9043 131.921 28.123C132.955 28.3318 133.919 28.7196 134.814 29.2864C135.719 29.8531 136.46 30.6635 137.036 31.7174C137.613 32.7615 137.902 34.1187 137.902 35.7891V51.0019H133.547V47.8699H133.368C133.079 48.4466 132.647 49.0134 132.07 49.5702C131.493 50.1269 130.753 50.5893 129.848 50.9572C128.943 51.3251 127.859 51.509 126.596 51.509ZM127.566 47.9296C128.799 47.9296 129.853 47.6859 130.728 47.1987C131.612 46.7115 132.284 46.0752 132.742 45.2897C133.208 44.4942 133.442 43.6441 133.442 42.7393V39.7862C133.283 39.9453 132.975 40.0944 132.518 40.2337C132.07 40.3629 131.558 40.4772 130.981 40.5767C130.405 40.6661 129.843 40.7507 129.296 40.8302C128.749 40.8998 128.292 40.9595 127.924 41.0092C127.059 41.1185 126.269 41.3025 125.552 41.561C124.846 41.8195 124.279 42.1924 123.852 42.6796C123.434 43.1569 123.226 43.7932 123.226 44.5887C123.226 45.6924 123.633 46.5276 124.449 47.0943C125.264 47.6512 126.303 47.9296 127.566 47.9296Z" fill="#1E1E1E"></path><path d="M141.742 51.0019V28.0932H146.052V31.7324H146.291C146.709 30.4994 147.444 29.53 148.498 28.824C149.563 28.1081 150.766 27.7502 152.108 27.7502C152.386 27.7502 152.715 27.7601 153.092 27.78C153.48 27.7999 153.783 27.8247 154.002 27.8546V32.1202C153.823 32.0704 153.504 32.0157 153.048 31.9561C152.59 31.8865 152.132 31.8516 151.676 31.8516C150.621 31.8516 149.682 32.0754 148.857 32.5228C148.041 32.9603 147.395 33.5718 146.918 34.3573C146.44 35.1329 146.201 36.0178 146.201 37.0121V51.0019H141.742Z" fill="#1E1E1E"></path><path d="M160.641 37.3999V51.0019H156.182V28.0932H160.462V31.8218H160.745C161.272 30.6088 162.098 29.6344 163.221 28.8986C164.355 28.1628 165.781 27.7949 167.502 27.7949C169.062 27.7949 170.43 28.123 171.603 28.7793C172.777 29.4256 173.686 30.3901 174.333 31.6727C174.979 32.9554 175.302 34.5413 175.302 36.4304V51.0019H170.842V36.9673C170.842 35.3068 170.41 34.0093 169.545 33.0747C168.68 32.1301 167.492 31.6578 165.981 31.6578C164.946 31.6578 164.026 31.8815 163.221 32.3289C162.426 32.7764 161.794 33.4326 161.327 34.2977C160.87 35.1528 160.641 36.1868 160.641 37.3999Z" fill="#1E1E1E"></path><path d="M189.008 51.0019H179.119V20.457H189.321C192.314 20.457 194.884 21.0685 197.032 22.2915C199.179 23.5045 200.825 25.2495 201.968 27.5265C203.122 29.7934 203.699 32.5129 203.699 35.6847C203.699 38.8665 203.117 41.6008 201.954 43.8877C200.8 46.1746 199.13 47.9345 196.942 49.1674C194.755 50.3904 192.11 51.0019 189.008 51.0019ZM183.728 46.975H188.754C191.081 46.975 193.015 46.5375 194.556 45.6625C196.097 44.7776 197.25 43.5 198.016 41.8295C198.782 40.1491 199.165 38.1009 199.165 35.6847C199.165 33.2884 198.782 31.2551 198.016 29.5847C197.26 27.9142 196.132 26.6465 194.631 25.7815C193.129 24.9164 191.265 24.4839 189.037 24.4839H183.728V46.975Z" fill="#1E1E1E"></path><path d="M212.8 51.509C211.347 51.509 210.035 51.2406 208.861 50.7036C207.689 50.1568 206.759 49.3663 206.073 48.3322C205.397 47.2982 205.059 46.0304 205.059 44.5291C205.059 43.2364 205.307 42.1725 205.804 41.3373C206.302 40.5021 206.972 39.8409 207.818 39.3537C208.663 38.8665 209.608 38.4986 210.651 38.2501C211.696 38.0015 212.76 37.8125 213.843 37.6833C215.215 37.5242 216.329 37.3949 217.184 37.2955C218.039 37.1861 218.66 37.0121 219.049 36.7734C219.436 36.5349 219.63 36.1471 219.63 35.6101V35.5058C219.63 34.2032 219.262 33.194 218.527 32.4781C217.8 31.7622 216.717 31.4042 215.275 31.4042C213.774 31.4042 212.59 31.7374 211.725 32.4035C210.871 33.0597 210.279 33.7906 209.951 34.5959L205.76 33.6414C206.256 32.2494 206.982 31.1258 207.937 30.2708C208.902 29.4057 210.01 28.7793 211.263 28.3915C212.516 27.9938 213.833 27.7949 215.215 27.7949C216.13 27.7949 217.1 27.9043 218.123 28.123C219.158 28.3318 220.123 28.7196 221.017 29.2864C221.922 29.8531 222.663 30.6635 223.239 31.7174C223.816 32.7615 224.104 34.1187 224.104 35.7891V51.0019H219.749V47.8699H219.57C219.282 48.4466 218.85 49.0134 218.273 49.5702C217.696 50.1269 216.955 50.5893 216.051 50.9572C215.146 51.3251 214.062 51.509 212.8 51.509ZM213.769 47.9296C215.002 47.9296 216.055 47.6859 216.931 47.1987C217.816 46.7115 218.486 46.0752 218.944 45.2897C219.411 44.4942 219.645 43.6441 219.645 42.7393V39.7862C219.486 39.9453 219.178 40.0944 218.72 40.2337C218.273 40.3629 217.761 40.4772 217.184 40.5767C216.608 40.6661 216.045 40.7507 215.499 40.8302C214.952 40.8998 214.495 40.9595 214.126 41.0092C213.262 41.1185 212.471 41.3025 211.755 41.561C211.049 41.8195 210.483 42.1924 210.055 42.6796C209.638 43.1569 209.428 43.7932 209.428 44.5887C209.428 45.6924 209.836 46.5276 210.651 47.0943C211.467 47.6512 212.506 47.9296 213.769 47.9296Z" fill="#1E1E1E"></path><path d="M244.271 33.6862L240.23 34.402C240.06 33.885 239.792 33.3929 239.424 32.9255C239.066 32.4582 238.579 32.0754 237.962 31.7771C237.346 31.4788 236.575 31.3296 235.65 31.3296C234.388 31.3296 233.333 31.6131 232.489 32.1798C231.644 32.7366 231.22 33.4575 231.22 34.3424C231.22 35.108 231.504 35.7245 232.071 36.1918C232.638 36.6592 233.553 37.042 234.815 37.3402L238.454 38.1754C240.563 38.6627 242.133 39.4134 243.168 40.4276C244.201 41.4417 244.718 42.7592 244.718 44.3799C244.718 45.752 244.32 46.975 243.525 48.0489C242.74 49.1127 241.641 49.9479 240.23 50.5545C238.827 51.161 237.201 51.4643 235.352 51.4643C232.786 51.4643 230.694 50.9175 229.073 49.8237C227.453 48.72 226.458 47.154 226.09 45.1256L230.401 44.4694C230.669 45.5929 231.22 46.4431 232.056 47.0198C232.891 47.5865 233.98 47.8699 235.322 47.8699C236.784 47.8699 237.952 47.5666 238.827 46.9601C239.702 46.3436 240.139 45.5929 240.139 44.708C240.139 43.9921 239.871 43.3906 239.334 42.9033C238.807 42.4162 237.997 42.0483 236.903 41.7997L233.026 40.9496C230.887 40.4623 229.307 39.6868 228.282 38.6229C227.269 37.559 226.761 36.2117 226.761 34.581C226.761 33.2288 227.139 32.0455 227.895 31.0314C228.651 30.0172 229.695 29.2267 231.027 28.66C232.359 28.0833 233.886 27.7949 235.605 27.7949C238.081 27.7949 240.03 28.3318 241.452 29.4057C242.874 30.4696 243.814 31.8964 244.271 33.6862Z" fill="#1E1E1E"></path><path d="M251.561 37.3999V51.0019H247.102V20.457H251.501V31.8218H251.784C252.322 30.5889 253.142 29.6095 254.245 28.8837C255.349 28.1579 256.791 27.7949 258.571 27.7949C260.142 27.7949 261.514 28.1181 262.687 28.7644C263.87 29.4106 264.785 30.3751 265.431 31.6578C266.088 32.9305 266.415 34.5214 266.415 36.4304V51.0019H261.956V36.9673C261.956 35.287 261.524 33.9845 260.658 33.0597C259.794 32.1251 258.59 31.6578 257.05 31.6578C255.995 31.6578 255.051 31.8815 254.215 32.3289C253.39 32.7764 252.739 33.4326 252.262 34.2977C251.794 35.1528 251.561 36.1868 251.561 37.3999Z" fill="#1E1E1E"></path></g><defs><clipPath id="clip0_11802_4260"><rect width="233" height="37.4328" fill="white" transform="translate(34 16)"></rect></clipPath></defs></svg>