<svg xmlns="http://www.w3.org/2000/svg" width="178" height="48" viewBox="0 0 178 48" fill="none"><g clip-path="url(#clip0)"><path d="M37.8299 0H38.1694C38.7143 0.0706849 39.2247 0.448767 39.3768 0.988767C41.2088 7.00027 40.4773 13.7507 37.3927 19.2271C36.1951 21.3468 34.6401 23.2471 32.9091 24.9518C34.3376 27.637 35.7628 30.323 37.1913 33.0082C37.3121 33.2449 37.3853 33.5104 37.3729 33.7784C37.3524 34.4934 36.7138 35.1378 35.9954 35.1493C35.7086 35.16 35.4258 35.0753 35.1801 34.9323C32.1801 33.2038 29.1825 31.4712 26.1809 29.746C24.994 31.3044 23.0354 32.0926 21.1244 32.2274C20.5696 32.2537 20.0329 31.9151 19.7888 31.4227C18.971 29.7156 18.6554 27.6452 19.4436 25.8682C16.4691 24.1529 13.4946 22.4367 10.5184 20.723C10.2077 20.5496 9.92992 20.2956 9.78773 19.9636C9.43019 19.1408 10.0031 18.023 10.9294 17.9531C14.0305 17.8299 17.1324 17.7378 20.2335 17.6178C20.9872 14.5463 22.3179 11.6145 24.1598 9.04192C25.7066 6.88932 27.6439 5.02192 29.8384 3.53753C31.7592 2.23151 33.8773 1.22959 36.0817 0.502192C36.6587 0.316438 37.2349 0.118356 37.8299 0ZM30.8551 10.1556C29.9543 10.3775 29.1669 11.0482 28.8431 11.9227C28.4823 12.8605 28.6549 13.9784 29.2828 14.7625C29.7686 15.3822 30.5255 15.7701 31.308 15.8285C32.4751 15.937 33.676 15.263 34.1535 14.1855C34.7132 13.0381 34.3746 11.5553 33.3949 10.7449C32.7127 10.1474 31.7297 9.93288 30.8551 10.1556Z" fill="#2295FF"></path><path d="M168.542 14.3638C170.163 14.2471 171.843 14.2783 173.388 14.8339C174.763 15.3279 175.892 16.3652 176.66 17.5907C176.736 17.8068 176.528 17.972 176.358 18.0559C176.003 18.24 175.666 18.4578 175.307 18.632C175.02 18.7241 174.902 18.3887 174.763 18.212C174.001 17.0959 172.696 16.4729 171.381 16.3085C169.783 16.1145 168.101 16.1268 166.595 16.7556C165.772 17.0975 164.998 17.6901 164.668 18.5433C164.399 19.255 164.374 20.1189 164.811 20.7698C165.174 21.2852 165.753 21.5942 166.32 21.8375C167.675 22.3907 169.137 22.5822 170.561 22.8756C172.09 23.1822 173.661 23.4961 175.023 24.2926C175.929 24.8178 176.683 25.6487 176.994 26.6613C177.514 28.3208 177.22 30.3 175.994 31.5838C175.02 32.6063 173.648 33.1405 172.288 33.4118C170.267 33.7956 168.129 33.752 166.18 33.0518C164.496 32.46 162.951 31.3356 162.082 29.7518C161.973 29.575 161.826 29.3013 162.055 29.1509C162.471 28.9224 162.916 28.7465 163.343 28.5378C163.459 28.463 163.657 28.4581 163.71 28.6159C164.38 29.9285 165.674 30.8046 167.028 31.3044C168.617 31.9085 170.38 31.92 172.027 31.5567C173.013 31.3257 174.018 30.8918 174.645 30.0608C175.159 29.3679 175.351 28.4424 175.165 27.6016C175.006 26.9071 174.52 26.3285 173.917 25.966C172.932 25.3635 171.792 25.0841 170.672 24.849C168.816 24.4808 166.901 24.2457 165.16 23.4633C164.063 22.9734 163.037 22.1334 162.676 20.9474C162.217 19.3783 162.539 17.5249 163.725 16.3487C164.987 15.0756 166.801 14.5455 168.542 14.3638Z" fill="#2295FF"></path><path d="M82.2758 15.2178C83.3443 14.5964 84.6364 14.4214 85.8487 14.6071C86.7315 14.746 87.5715 15.0904 88.3342 15.5507C87.9323 16.3512 87.5337 17.1534 87.1309 17.954C86.4652 17.4847 85.6416 17.1543 84.8156 17.2956C84.26 17.3803 83.7627 17.751 83.5284 18.263C83.1915 18.9329 83.2835 19.7006 83.2712 20.4238C84.5295 20.428 85.7879 20.4181 87.0463 20.4296C87.0364 21.3526 87.0446 22.2756 87.0422 23.1986C85.7854 23.1986 84.5287 23.1986 83.272 23.1986C83.2704 26.5003 83.2728 29.8011 83.2712 33.1027C82.206 33.1027 81.1416 33.1027 80.0764 33.1027C80.0756 29.8011 80.0772 26.5003 80.0756 23.1986C79.2775 23.1986 78.4802 23.1986 77.6821 23.1986C77.6821 22.274 77.6821 21.3493 77.6821 20.4247C78.4802 20.423 79.2783 20.4255 80.0764 20.4238C80.0665 19.4721 80.0599 18.4964 80.3788 17.5874C80.7002 16.6036 81.3758 15.7356 82.2758 15.2178Z" fill="#2295FF"></path><path d="M127.45 14.8759C127.421 14.7115 127.54 14.5241 127.721 14.5397C128.218 14.5381 128.716 14.5291 129.214 14.5447C129.377 14.5496 129.462 14.7296 129.442 14.8759C129.443 20.4107 129.442 25.9447 129.443 31.4795C132.762 31.4803 136.081 31.4786 139.4 31.4803C139.546 31.4532 139.717 31.5551 139.703 31.7186C139.709 32.1896 139.711 32.6614 139.702 33.1323C139.703 33.286 139.545 33.3953 139.401 33.3781C135.536 33.383 131.671 33.3797 127.806 33.3789C127.609 33.4085 127.416 33.2375 127.45 33.0353C127.449 26.9819 127.449 20.9293 127.45 14.8759Z" fill="#2295FF"></path><path d="M141.813 14.8678C141.785 14.691 141.925 14.5119 142.113 14.539C142.661 14.5357 143.21 14.5365 143.758 14.5382C143.89 14.5267 144.026 14.5867 144.089 14.71C145.944 17.5604 147.803 20.4091 149.659 23.2579C150.033 23.8078 150.363 24.3897 150.767 24.9182C152.956 21.5261 155.17 18.1489 157.364 14.7601C157.431 14.668 157.496 14.5275 157.634 14.5415C158.214 14.5324 158.795 14.5382 159.376 14.539C159.566 14.5053 159.719 14.6861 159.689 14.8702C159.69 20.9294 159.691 26.9894 159.688 33.0494C159.708 33.2286 159.548 33.3954 159.369 33.379C158.929 33.3823 158.491 33.3823 158.053 33.3782C157.861 33.3962 157.661 33.2417 157.697 33.0379C157.695 27.9856 157.697 22.9332 157.696 17.8801C155.561 21.1415 153.428 24.4045 151.294 27.6667C151.162 27.9469 150.811 27.8368 150.568 27.8499C150.395 27.8565 150.279 27.7135 150.199 27.582C148.07 24.3321 145.939 21.0839 143.806 17.8365C143.804 22.9069 143.807 27.9773 143.806 33.0486C143.825 33.2138 143.685 33.3831 143.516 33.3773C143.045 33.3823 142.574 33.3847 142.105 33.3757C141.931 33.3823 141.792 33.213 141.814 33.0453C141.812 26.9861 141.813 20.9269 141.813 14.8678Z" fill="#2295FF"></path><path d="M57.9864 14.8167C59.1404 14.8126 60.2952 14.8159 61.45 14.815C61.4491 19.846 61.4491 24.877 61.45 29.9071C64.5798 29.9079 67.7097 29.9071 70.8395 29.9079C70.8395 30.9731 70.8404 32.0375 70.8395 33.1027C66.5524 33.0962 62.2653 33.1151 57.979 33.0937C57.9971 27.0016 57.9831 20.9088 57.9864 14.8167Z" fill="#2295FF"></path><path d="M73.9285 14.8479C74.5236 14.6515 75.2165 14.7288 75.7302 15.097C76.7009 15.7792 76.7026 17.4394 75.736 18.1266C74.9781 18.6723 73.8134 18.5934 73.1748 17.8956C72.7071 17.3918 72.6192 16.6282 72.8025 15.9863C72.9586 15.4496 73.3992 15.0173 73.9285 14.8479Z" fill="#2295FF"></path><path d="M90.8536 16.9322C91.9148 16.8213 92.9767 16.7152 94.0386 16.6084C94.0403 17.8224 94.0386 19.0355 94.0394 20.2495C95.2205 20.2511 96.4025 20.2487 97.5836 20.2511C97.5828 21.1717 97.5836 22.0922 97.5836 23.0136C96.3885 23.0136 95.1926 23.0136 93.9975 23.0136C93.9975 24.8785 93.9983 26.7426 93.9975 28.6076C94.0016 29.0522 94.1126 29.5191 94.4118 29.861C94.7036 30.198 95.1523 30.3583 95.5896 30.3706C96.1584 30.3878 96.7074 30.1922 97.2178 29.958C97.5072 30.867 97.8022 31.7744 98.0924 32.6835C97.2252 33.0476 96.2891 33.2662 95.3447 33.2374C94.1726 33.2736 92.9257 32.9621 92.0775 32.1106C91.2013 31.2369 90.88 29.9613 90.8561 28.7572C90.852 26.8429 90.8553 24.9278 90.8545 23.0136C90.0556 23.0128 89.2575 23.0144 88.4602 23.0128C88.461 22.0922 88.4594 21.1709 88.4602 20.2495C89.2583 20.2503 90.0556 20.2503 90.8536 20.2495C90.8545 19.144 90.8545 18.0377 90.8536 16.9322Z" fill="#2295FF"></path><path d="M101.598 21.3781C102.778 20.3713 104.332 19.8839 105.867 19.8362C107.365 19.7886 108.931 20.0524 110.196 20.8973C111.162 21.5302 111.879 22.5034 112.268 23.585C112.758 24.928 112.817 26.3894 112.685 27.8014C109.338 27.8023 105.991 27.8006 102.645 27.8023C102.761 28.5486 103.162 29.2464 103.766 29.7025C104.682 30.4036 105.895 30.5894 107.02 30.4825C108.063 30.3675 109.148 30.0592 109.923 29.3154C110.597 29.9918 111.271 30.6707 111.952 31.3422C110.991 32.3376 109.674 32.917 108.34 33.2138C106.776 33.5458 105.118 33.4924 103.597 32.9861C102.28 32.5455 101.102 31.662 100.379 30.4686C99.458 28.9636 99.2221 27.1192 99.4514 25.3916C99.6634 23.8587 100.401 22.3768 101.598 21.3781ZM104.11 23.2316C103.412 23.6688 102.926 24.388 102.694 25.1705C105.008 25.1721 107.323 25.1713 109.638 25.1705C109.554 24.6272 109.36 24.088 108.991 23.6705C108.498 23.0984 107.759 22.7984 107.025 22.6998C106.032 22.5675 104.966 22.6817 104.11 23.2316Z" fill="#2295FF"></path><path d="M119.757 20.3088C120.538 19.9036 121.443 19.8469 122.307 19.8913C123.383 19.9784 124.463 20.3721 125.259 21.1201C124.778 22.0447 124.302 22.9718 123.821 23.8965C123.372 23.5012 122.828 23.1979 122.229 23.1157C121.238 22.9702 120.139 23.1066 119.342 23.7568C118.634 24.3247 118.325 25.2518 118.305 26.1346C118.283 28.4565 118.302 30.7801 118.296 33.1028C117.233 33.102 116.171 33.1045 115.11 33.1012C115.112 28.8181 115.111 24.5343 115.11 20.2513C116.097 20.2488 117.084 20.2505 118.071 20.2497C118.146 20.7346 118.224 21.2187 118.296 21.7036C118.663 21.1332 119.145 20.6179 119.757 20.3088Z" fill="#2295FF"></path><path d="M72.9875 20.1986C74.0527 20.1986 75.1171 20.1986 76.1823 20.1986C76.1823 24.5005 76.1831 28.8016 76.1823 33.1027C75.1179 33.1027 74.0527 33.1019 72.9883 33.1027C72.9867 28.8016 72.9875 24.5005 72.9875 20.1986Z" fill="#2295FF"></path><path d="M17.9833 4.17542C20.3882 3.48912 22.909 3.20884 25.406 3.35104C24.1789 4.49679 23.0298 5.73049 22.0394 7.0883C18.3696 7.47131 14.8263 8.97706 12.0038 11.3541C10.3887 12.7077 9.00955 14.3417 7.94105 16.1582C7.66407 16.6538 7.40105 17.1576 7.13722 17.6606C5.76544 20.5661 5.16379 23.8308 5.41201 27.0338C5.66516 30.4373 6.87092 33.7645 8.86654 36.5335C10.3082 34.0497 11.7506 31.5667 13.1906 29.082C13.7356 29.3869 14.2764 29.6993 14.8189 30.0091C14.2411 31.5987 13.7315 33.2121 13.1816 34.8116C12.2356 37.6193 11.2904 40.4269 10.3435 43.2346C7.12571 40.7458 4.62379 37.3489 3.19119 33.5417C1.90571 30.1488 1.45858 26.442 1.91311 22.842C2.44817 18.5039 4.30735 14.3434 7.1742 11.0458C10.0041 7.76556 13.8161 5.35487 17.9833 4.17542Z" fill="#466DD8"></path><path d="M41.1333 18.0856C41.8221 16.5642 42.2857 14.9524 42.6572 13.3275C44.3273 15.8467 45.4723 18.7103 46.0049 21.6856C46.6492 25.2445 46.4084 28.9596 45.3005 32.4026C44.4671 34.9991 43.1512 37.4377 41.4564 39.5722C39.6794 41.8037 37.466 43.6867 34.9772 45.0824C32.2887 46.5947 29.2838 47.5399 26.2139 47.8424C25.0985 47.9369 23.975 48.0544 22.8572 47.9237C20.3972 47.7906 17.9618 47.2457 15.6802 46.3185C17.8542 43.7936 20.0742 41.3065 22.2654 38.7963C23.144 37.8174 23.9791 36.7974 24.8881 35.8473C25.4281 36.158 25.9706 36.4645 26.5106 36.7761C25.0714 39.2624 23.615 41.7396 22.1914 44.235C25.5218 44.5736 28.9377 43.99 31.9665 42.5657C34.8013 41.2432 37.2892 39.1941 39.1386 36.6717C39.8807 35.6952 40.4454 34.5988 40.9813 33.4999C42.501 30.2508 43.0361 26.5571 42.5249 23.0081C42.2865 21.3141 41.8114 19.6555 41.1333 18.0856Z" fill="#466DD8"></path><path d="M17.3796 31.2847C17.5901 31.8164 17.8333 32.3392 18.1424 32.8216C18.8361 33.8663 20.115 34.4811 21.3643 34.3734C21.7309 34.3332 22.0958 34.2806 22.4624 34.2386C19.201 37.9488 15.9388 41.6589 12.6733 45.3657C14.2407 40.6718 15.8155 35.9795 17.3796 31.2847Z" fill="#F8954F"></path></g><defs><clipPath id="clip0"><rect width="176.727" height="48" fill="white" transform="translate(0.63623)"></rect></clipPath></defs></svg>