<svg width="28" height="31" viewBox="0 0 28 31" fill="none" xmlns="http://www.w3.org/2000/svg">
<path d="M3.5 9.22656V27.2266H24.5V9.22656H3.5ZM3.5 6.22656H24.5V3.22656H3.5V6.22656ZM26 30.2266H2C1.60218 30.2266 1.22064 30.0685 0.93934 29.7872C0.658035 29.5059 0.5 29.1244 0.5 28.7266V1.72656C0.5 1.32874 0.658035 0.947207 0.93934 0.665902C1.22064 0.384598 1.60218 0.226563 2 0.226562H26C26.3978 0.226563 26.7794 0.384598 27.0607 0.665902C27.342 0.947207 27.5 1.32874 27.5 1.72656V28.7266C27.5 29.1244 27.342 29.5059 27.0607 29.7872C26.7794 30.0685 26.3978 30.2266 26 30.2266ZM6.5 12.2266H12.5V18.2266H6.5V12.2266ZM6.5 21.2266H21.5V24.2266H6.5V21.2266ZM15.5 13.7266H21.5V16.7266H15.5V13.7266Z" fill="#D81897"/>
</svg>
