<svg xmlns="http://www.w3.org/2000/svg" width="90" height="90" viewBox="0 0 90 90" fill="none"><rect x="0.5" y="0.101562" width="89" height="89" rx="8" fill="#F5EFFF"></rect><g clip-path="url(#clip0_8959_314)"><path d="M26.6434 66.3878H64.3577C66.2513 66.3878 67.7863 64.8529 67.7863 62.9593V25.245C67.7863 23.3514 66.2513 21.8164 64.3577 21.8164H26.6434C24.7499 21.8164 23.2148 23.3514 23.2148 25.245V62.9593C23.2148 64.8529 24.7499 66.3878 26.6434 66.3878Z" fill="#E4D7FF"></path><path d="M64.3577 21.8164H26.6434C24.7499 21.8164 23.2148 23.3514 23.2148 25.245V62.9593C23.2148 64.8529 24.7499 66.3878 26.6434 66.3878H64.3577C66.2513 66.3878 67.7863 64.8529 67.7863 62.9593V25.245C67.7863 23.3514 66.2513 21.8164 64.3577 21.8164Z" stroke="#5F41D5" stroke-width="3" stroke-linecap="round" stroke-linejoin="round"></path><path d="M23.2148 32.1016H67.7863" stroke="#5F41D5" stroke-width="3" stroke-linecap="round" stroke-linejoin="round"></path><path d="M36.9297 32.1016V66.3873" stroke="#5F41D5" stroke-width="3" stroke-linecap="round" stroke-linejoin="round"></path><path d="M67.7868 49.2441H36.9297" stroke="#5F41D5" stroke-width="3" stroke-linecap="round" stroke-linejoin="round"></path></g><defs><clipPath id="clip0_8959_314"><rect width="48" height="48" fill="white" transform="translate(21.5 20.1016)"></rect></clipPath></defs></svg>