<svg xmlns="http://www.w3.org/2000/svg" width="65" height="64" viewBox="0 0 65 64" fill="none"><rect x="0.600586" width="64" height="64" rx="5.75281" fill="#F5EFFF"></rect><g clip-path="url(#clip0_86_24626)"><path d="M27.6719 15.9746H19.0426C17.681 15.9746 16.5771 17.0784 16.5771 18.4401V27.0693C16.5771 28.431 17.681 29.5348 19.0426 29.5348H27.6719C29.0335 29.5348 30.1373 28.431 30.1373 27.0693V18.4401C30.1373 17.0784 29.0335 15.9746 27.6719 15.9746Z" fill="#E4D7FF"></path><path d="M46.164 34.4658H37.5348C36.1732 34.4658 35.0693 35.5697 35.0693 36.9313V45.5605C35.0693 46.9222 36.1732 48.026 37.5348 48.026H46.164C47.5257 48.026 48.6295 46.9222 48.6295 45.5605V36.9313C48.6295 35.5697 47.5257 34.4658 46.164 34.4658Z" fill="#E4D7FF"></path><path d="M27.6719 34.4658H19.0426C17.681 34.4658 16.5771 35.5697 16.5771 36.9313V45.5605C16.5771 46.9222 17.681 48.026 19.0426 48.026H27.6719C29.0335 48.026 30.1373 46.9222 30.1373 45.5605V36.9313C30.1373 35.5697 29.0335 34.4658 27.6719 34.4658Z" fill="#E4D7FF"></path><path d="M27.6719 15.9746H19.0426C17.681 15.9746 16.5771 17.0784 16.5771 18.4401V27.0693C16.5771 28.431 17.681 29.5348 19.0426 29.5348H27.6719C29.0335 29.5348 30.1373 28.431 30.1373 27.0693V18.4401C30.1373 17.0784 29.0335 15.9746 27.6719 15.9746Z" stroke="#5F41D5" stroke-width="2.46549" stroke-linecap="round" stroke-linejoin="round"></path><path d="M46.164 34.4658H37.5348C36.1732 34.4658 35.0693 35.5697 35.0693 36.9313V45.5605C35.0693 46.9222 36.1732 48.026 37.5348 48.026H46.164C47.5257 48.026 48.6295 46.9222 48.6295 45.5605V36.9313C48.6295 35.5697 47.5257 34.4658 46.164 34.4658Z" stroke="#5F41D5" stroke-width="2.46549" stroke-linecap="round" stroke-linejoin="round"></path><path d="M27.6719 34.4658H19.0426C17.681 34.4658 16.5771 35.5697 16.5771 36.9313V45.5605C16.5771 46.9222 17.681 48.026 19.0426 48.026H27.6719C29.0335 48.026 30.1373 46.9222 30.1373 45.5605V36.9313C30.1373 35.5697 29.0335 34.4658 27.6719 34.4658Z" stroke="#5F41D5" stroke-width="2.46549" stroke-linecap="round" stroke-linejoin="round"></path><path d="M41.8506 29.535V15.9749" stroke="#5F41D5" stroke-width="2.46549" stroke-linecap="round" stroke-linejoin="round"></path><path d="M35.0693 22.7549H48.6295" stroke="#5F41D5" stroke-width="2.46549" stroke-linecap="round" stroke-linejoin="round"></path></g><defs><clipPath id="clip0_86_24626"><rect width="34.5169" height="34.5169" fill="white" transform="translate(15.3428 14.7417)"></rect></clipPath></defs></svg>