<svg xmlns="http://www.w3.org/2000/svg" width="36" height="36" viewBox="0 0 36 36" fill="none"><path d="M26.9999 23.625C26.3938 23.6248 25.794 23.7474 25.2366 23.9855C24.6793 24.2236 24.1759 24.5721 23.7571 25.0102L13.3508 19.1552C13.5524 18.3983 13.5524 17.6017 13.3508 16.8448L23.7571 10.9899C24.5148 11.7755 25.5331 12.2579 26.621 12.3467C27.7089 12.4354 28.7918 12.1245 29.6669 11.4722C30.5421 10.8198 31.1493 9.87071 31.3749 8.80276C31.6005 7.7348 31.429 6.62122 30.8925 5.67065C30.356 4.72008 29.4913 3.99773 28.4604 3.63893C27.4296 3.28013 26.3032 3.3095 25.2925 3.72154C24.2817 4.13358 23.4558 4.90001 22.9696 5.87725C22.4833 6.85449 22.3701 7.97549 22.6511 9.03024L12.2448 14.8852C11.6232 14.237 10.8219 13.7897 9.94399 13.6008C9.06608 13.4118 8.1517 13.4898 7.3185 13.8248C6.48529 14.1598 5.77136 14.7364 5.26856 15.4804C4.76576 16.2245 4.49707 17.102 4.49707 18C4.49707 18.898 4.76576 19.7755 5.26856 20.5196C5.77136 21.2636 6.48529 21.8402 7.3185 22.1752C8.1517 22.5102 9.06608 22.5882 9.94399 22.3993C10.8219 22.2103 11.6232 21.763 12.2448 21.1149L22.6511 26.9698C22.4098 27.8781 22.459 28.8392 22.7917 29.7182C23.1244 30.5972 23.724 31.3499 24.5063 31.8707C25.2887 32.3916 26.2144 32.6544 27.1537 32.6224C28.093 32.5903 28.9987 32.265 29.7437 31.692C30.4887 31.119 31.0356 30.3272 31.3076 29.4276C31.5796 28.528 31.5632 27.5657 31.2606 26.676C30.9579 25.7862 30.3843 25.0135 29.6201 24.4663C28.856 23.9191 27.9397 23.6249 26.9999 23.625Z" fill="#1877D8"></path></svg>