<svg xmlns="http://www.w3.org/2000/svg" width="300" height="70" viewBox="0 0 300 70" fill="none"><mask id="mask0_11819_6707" style="mask-type:luminance" maskUnits="userSpaceOnUse" x="34" y="15" width="232" height="40"><path d="M265.835 15H34V54.3187H265.835V15Z" fill="white"></path></mask><g mask="url(#mask0_11819_6707)"><path d="M76.4531 41.1291L77.8412 39.1605C78.4782 39.8698 79.3254 40.4671 80.3831 40.9517C81.4406 41.4365 82.5523 41.6789 83.7181 41.6789C85.052 41.6789 86.0916 41.4011 86.8366 40.8454C87.5937 40.2897 87.9724 39.5626 87.9724 38.6639C87.9724 38.0964 87.768 37.6176 87.3594 37.2273C86.9508 36.8372 86.422 36.5358 85.7731 36.3229C85.1241 36.1101 84.4091 35.915 83.6279 35.7376C82.8466 35.5602 82.0595 35.3533 81.2663 35.1169C80.4852 34.8804 79.7702 34.5908 79.1211 34.2478C78.4722 33.905 77.9435 33.4203 77.5348 32.7936C77.1262 32.1551 76.9219 31.3984 76.9219 30.5235C76.9219 29.081 77.5108 27.8809 78.6885 26.9232C79.8663 25.9537 81.4827 25.4689 83.5378 25.4689C86.2538 25.4689 88.4531 26.3202 90.1356 28.0228L88.8557 29.9027C88.3028 29.2406 87.5578 28.7086 86.6204 28.3066C85.6949 27.8927 84.6674 27.6858 83.5378 27.6858C82.348 27.6858 81.3926 27.9519 80.6714 28.4839C79.9505 29.0042 79.5899 29.6604 79.5899 30.4526C79.5899 30.9609 79.7942 31.3924 80.2028 31.7472C80.6114 32.0901 81.1341 32.362 81.7711 32.563C82.4201 32.7521 83.1351 32.9355 83.9163 33.1128C84.7095 33.2783 85.4967 33.4852 86.2779 33.7335C87.0711 33.9818 87.7861 34.2892 88.4231 34.6557C89.072 35.0105 89.6007 35.5248 90.0094 36.1988C90.418 36.8727 90.6223 37.6708 90.6223 38.593C90.6223 40.1301 90.0094 41.4011 88.7836 42.4061C87.5697 43.3992 85.8571 43.8958 83.6458 43.8958C80.6534 43.8958 78.2558 42.9736 76.4531 41.1291Z" fill="#334155"></path><path d="M92.9141 38.2914V25.9123H95.6722V37.4578C95.6722 38.924 96.0147 39.9585 96.6997 40.5615C97.3848 41.1528 98.3823 41.4483 99.6922 41.4483C100.726 41.4483 101.723 41.1941 102.685 40.6858C103.646 40.1772 104.397 39.5506 104.938 38.8057V25.9123H107.714V43.4523H104.938V40.9872C104.193 41.8148 103.261 42.5065 102.144 43.0622C101.026 43.6179 99.8425 43.8958 98.5926 43.8958C94.8069 43.8958 92.9141 42.0277 92.9141 38.2914Z" fill="#334155"></path><path d="M111.033 43.4524V25.9123H113.791V28.7145C114.56 27.7449 115.456 26.9705 116.477 26.3912C117.499 25.8 118.586 25.5044 119.74 25.5044V28.3066C119.307 28.2593 118.953 28.2356 118.676 28.2356C117.823 28.2356 116.898 28.5253 115.9 29.1046C114.903 29.6722 114.2 30.3165 113.791 31.0378V43.4524H111.033Z" fill="#334155"></path><path d="M119.959 34.6557C119.959 32.9768 120.332 31.4398 121.077 30.0447C121.834 28.6376 122.885 27.5262 124.231 26.7104C125.577 25.8828 127.086 25.4689 128.756 25.4689C130.511 25.4689 132.043 25.8887 133.353 26.7281C134.663 27.5676 135.648 28.6967 136.309 30.1156C136.982 31.5226 137.319 33.1128 137.319 34.8863V35.578H122.915C123.024 37.3042 123.649 38.7466 124.79 39.9054C125.944 41.0641 127.446 41.6434 129.297 41.6434C130.342 41.6434 131.346 41.4483 132.307 41.0581C133.281 40.668 134.128 40.1123 134.849 39.391L136.165 41.1646C134.278 42.9853 131.917 43.8958 129.081 43.8958C126.413 43.8958 124.225 43.0386 122.519 41.3242C120.812 39.6098 119.959 37.3869 119.959 34.6557ZM122.879 33.5385H134.579C134.567 32.8646 134.441 32.1964 134.2 31.5344C133.972 30.8723 133.629 30.2515 133.173 29.6722C132.716 29.0928 132.103 28.6258 131.334 28.2711C130.565 27.9046 129.694 27.7213 128.72 27.7213C127.807 27.7213 126.978 27.8987 126.232 28.2534C125.487 28.6081 124.88 29.0751 124.412 29.6544C123.955 30.2219 123.595 30.8427 123.33 31.5167C123.066 32.1788 122.915 32.8528 122.879 33.5385Z" fill="#334155"></path><path d="M149.236 43.7551V28.9902H154.608V25.5851H139.877V28.9902H145.276V43.7551H149.236Z" fill="#334155"></path><path d="M171.554 43.7551L167.373 36.8357C169.367 36.3726 171.443 34.6292 171.443 31.4419C171.443 28.064 169.062 25.5851 165.213 25.5851H156.574V43.7551H160.506V37.2988H163.386L167.013 43.7551H171.554ZM164.659 33.8936H160.506V28.9902H164.659C166.21 28.9902 167.401 29.9165 167.401 31.4147C167.401 32.9675 166.21 33.8936 164.659 33.8936Z" fill="#334155"></path><path d="M177.744 43.7551V25.5851H173.812V43.7551H177.744Z" fill="#334155"></path><path d="M189.828 44.0819C193.151 44.0819 195.781 42.7471 197.664 40.6767V33.703H188.858V37.081H193.732V39.2602C192.985 39.9413 191.462 40.6495 189.828 40.6495C186.45 40.6495 184.013 38.1161 184.013 34.6837C184.013 31.2513 186.45 28.7179 189.828 28.7179C191.766 28.7179 193.345 29.8076 194.203 31.0879L197.443 29.3444C196.058 27.1923 193.649 25.2855 189.828 25.2855C184.401 25.2855 179.971 28.9358 179.971 34.6837C179.971 40.4044 184.401 44.0819 189.828 44.0819Z" fill="#334155"></path><path d="M209.205 44.0819C212.527 44.0819 215.158 42.7471 217.041 40.6767V33.703H208.235V37.081H213.109V39.2602C212.361 39.9413 210.837 40.6495 209.205 40.6495C205.827 40.6495 203.39 38.1161 203.39 34.6837C203.39 31.2513 205.827 28.7179 209.205 28.7179C211.143 28.7179 212.72 29.8076 213.58 31.0879L216.818 29.3444C215.435 27.1923 213.026 25.2855 209.205 25.2855C203.778 25.2855 199.348 28.9358 199.348 34.6837C199.348 40.4044 203.778 44.0819 209.205 44.0819Z" fill="#334155"></path><path d="M232.676 43.7551V40.3499H223.539V36.2092H232.482V32.8041H223.539V28.9902H232.676V25.5851H219.607V43.7551H232.676Z" fill="#334155"></path><path d="M250.176 43.7551L245.995 36.8357C247.989 36.3726 250.066 34.6292 250.066 31.4419C250.066 28.064 247.685 25.5851 243.836 25.5851H235.197V43.7551H239.129V37.2988H242.008L245.636 43.7551H250.176ZM243.282 33.8936H239.129V28.9902H243.282C244.833 28.9902 246.023 29.9165 246.023 31.4147C246.023 32.9675 244.833 33.8936 243.282 33.8936Z" fill="#334155"></path><path d="M259.026 44.0819C263.981 44.0819 266.419 41.5757 266.419 38.2524C266.419 31.4693 255.813 33.4033 255.813 30.543C255.813 29.4534 256.756 28.7451 258.417 28.7451C260.3 28.7451 262.294 29.3716 263.788 30.7337L265.975 27.8461C264.148 26.1844 261.711 25.3127 258.777 25.3127C254.43 25.3127 251.771 27.8189 251.771 30.8427C251.771 37.6802 262.404 35.4737 262.404 38.6336C262.404 39.6961 261.379 40.6495 259.192 40.6495C256.645 40.6495 254.624 39.5055 253.322 38.1705L251.162 41.1944C252.907 42.9106 255.454 44.0819 259.026 44.0819Z" fill="#334155"></path><path fill-rule="evenodd" clip-rule="evenodd" d="M51.8089 51.3213C61.3242 51.3213 69.0378 43.7325 69.0378 34.3713C69.0378 25.01 61.3242 17.4211 51.8089 17.4211C42.2937 17.4211 34.5801 25.01 34.5801 34.3713C34.5801 43.7325 42.2937 51.3213 51.8089 51.3213ZM51.8832 25.8962C50.4997 25.8962 48.5852 26.6745 47.6071 27.6347L44.9503 30.2424H58.1928L62.6208 25.8962H51.8832ZM55.9885 41.1078C55.0103 42.068 53.0958 42.8462 51.7124 42.8462H40.9747L45.4027 38.5001H58.6453L55.9885 41.1078ZM60.2924 32.4154H42.741L41.912 33.2303C39.9489 34.9688 40.5311 36.3271 43.2803 36.3271H60.8793L61.7086 35.5121C63.6526 33.7839 63.0417 32.4154 60.2924 32.4154Z" fill="#0553F0"></path></g></svg>