<svg width="37" height="37" viewBox="0 0 37 37" fill="none" xmlns="http://www.w3.org/2000/svg">
<path fill-rule="evenodd" clip-rule="evenodd" d="M18.0859 3.91064C9.81494 3.91064 3.08594 10.6396 3.08594 18.9106C3.08594 27.1816 9.81494 33.9106 18.0859 33.9106C26.3569 33.9106 33.0859 27.1816 33.0859 18.9106C33.0859 10.6396 26.3569 3.91064 18.0859 3.91064ZM18.0859 33.2236C10.1944 33.2236 3.77444 26.8021 3.77444 18.9106C3.77444 11.0191 10.1944 4.59764 18.0859 4.59764C25.9774 4.59764 32.3989 11.0176 32.3989 18.9106C32.3989 26.8006 25.9789 33.2236 18.0859 33.2236ZM5.21894 18.9106C5.21863 21.3271 5.89871 23.6948 7.18132 25.7427C8.46394 27.7907 10.2973 29.4361 12.4714 30.4906L6.33194 13.6756C5.5967 15.3229 5.21743 17.1068 5.21894 18.9106ZM26.7739 18.2626C26.7739 16.6726 26.2009 15.5716 25.7119 14.7136C25.0594 13.6531 24.4474 12.7561 24.4474 11.6956C24.4474 10.5136 25.3444 9.41264 26.6074 9.41264C26.6659 9.41264 26.7199 9.41864 26.7754 9.42314C24.4062 7.24493 21.3043 6.03749 18.0859 6.04064C15.9532 6.03958 13.8537 6.56922 11.9767 7.58183C10.0997 8.59443 8.50421 10.0582 7.33394 11.8411C7.63694 11.8501 7.92194 11.8561 8.16344 11.8561C9.50894 11.8561 11.5924 11.6926 11.5924 11.6926C12.2854 11.6521 12.3679 12.6706 11.6749 12.7531C11.6749 12.7531 10.9774 12.8356 10.2019 12.8761L14.8879 26.8141L17.7034 18.3691L15.6994 12.8761C15.0064 12.8356 14.3494 12.7531 14.3494 12.7531C13.6564 12.7126 13.7374 11.6521 14.4319 11.6926C14.4319 11.6926 16.5559 11.8576 17.8204 11.8576C19.1659 11.8576 21.2494 11.6926 21.2494 11.6926C21.9439 11.6521 22.0249 12.6706 21.3319 12.7531C21.3319 12.7531 20.6344 12.8356 19.8589 12.8761L24.5089 26.7076L25.7944 22.4191C26.3494 20.6386 26.7724 19.3606 26.7724 18.2596M18.3124 20.0341L14.4514 31.2541C17.0435 32.0187 19.8106 31.9468 22.3594 31.0486C22.3234 30.9919 22.2923 30.9322 22.2664 30.8701L18.3124 20.0341ZM29.3779 12.7351C29.4334 13.1461 29.4649 13.5856 29.4649 14.0581C29.4649 15.3631 29.2204 16.8316 28.4854 18.6676L24.5554 30.0316C26.5019 28.9001 28.1173 27.2774 29.24 25.3259C30.3626 23.3743 30.9533 21.1621 30.9529 18.9106C30.9565 16.7528 30.4147 14.6276 29.3779 12.7351Z" fill="#1877D8"/>
</svg>
